<svg width="71" height="83" viewBox="0 0 71 83" fill="none" xmlns="http://www.w3.org/2000/svg">
<g clip-path="url(#clip0_63_2549)">
<path d="M18.6612 57.9893C18.815 58.0557 18.9925 58.0889 19.1582 58.0889C19.4303 58.0889 19.7025 58.0004 19.9273 57.8233L31.9855 48.2617H59.1667C61.7818 48.2617 63.9118 46.2697 63.9118 43.824V12.7377C63.9118 10.292 61.7818 8.31104 59.1667 8.31104H11.8333C9.22998 8.31104 7.11182 10.303 7.11182 12.7377V43.824C7.11182 46.2697 9.22998 48.2617 11.8333 48.2617H17.9748V56.9822C17.9748 57.4138 18.247 57.8012 18.6612 57.9893ZM11.8215 46.0484C10.5198 46.0484 9.46665 45.0524 9.46665 43.824V12.7377C9.46665 11.5093 10.5198 10.5244 11.8215 10.5244H59.1548C60.4683 10.5244 61.5333 11.5204 61.5333 12.7377V43.824C61.5333 45.0524 60.4683 46.0484 59.1548 46.0484H31.5477C31.2637 46.0484 30.9915 46.1369 30.7785 46.314L20.3297 54.5918V47.155C20.3297 46.5464 19.7972 46.0484 19.1463 46.0484H11.8215Z" fill="#DC4618"/>
<path d="M25.2995 35.0038H28.5536L43.582 43.2485C43.7713 43.3481 43.9725 43.4034 44.1855 43.4034C44.3866 43.4034 44.5878 43.3592 44.7771 43.2596C45.144 43.0604 45.3688 42.6952 45.3688 42.2968V33.8418C48.1378 33.3217 50.2441 31.0309 50.2441 28.2974C50.2441 25.5529 48.1496 23.2621 45.3688 22.742V14.2981C45.3688 13.8997 45.144 13.5345 44.7771 13.3353C44.4103 13.1361 43.9606 13.1361 43.5938 13.3464L28.5418 21.58H25.2995C23.3825 21.58 21.572 22.2772 20.223 23.5388C18.874 24.8004 18.1285 26.4936 18.1285 28.2753C18.1166 31.9826 21.3353 35.0038 25.2995 35.0038ZM47.8656 28.2864C47.8656 29.8025 46.8125 31.0752 45.357 31.54V25.0438C46.8125 25.4976 47.8656 26.7702 47.8656 28.2864ZM42.9903 40.3601L30.0446 33.2553V23.3174L42.9903 16.2126V40.3601ZM21.8915 25.1102C22.8026 24.2581 24.0096 23.7933 25.2995 23.7933H27.6898V32.7794H25.2995C22.6488 32.7794 20.4833 30.7653 20.4833 28.2753C20.4833 27.0912 20.9803 25.9624 21.8915 25.1102Z" fill="#DC4618"/>
</g>
<defs>
<clipPath id="clip0_63_2549">
<rect width="71" height="83" rx="7" fill="white"/>
</clipPath>
</defs>
</svg>
