<svg width="71" height="75" viewBox="0 0 71 75" fill="none" xmlns="http://www.w3.org/2000/svg">
<path d="M22.1875 56.25H42.1562V21.0938H6.65625V56.25H13.3125" stroke="#DC4618" stroke-width="2" stroke-miterlimit="10" stroke-linecap="round" stroke-linejoin="round"/>
<path d="M53.25 60.9375C55.7008 60.9375 57.6875 58.8388 57.6875 56.25C57.6875 53.6612 55.7008 51.5625 53.25 51.5625C50.7992 51.5625 48.8125 53.6612 48.8125 56.25C48.8125 58.8388 50.7992 60.9375 53.25 60.9375Z" stroke="#DC4618" stroke-width="2" stroke-miterlimit="10" stroke-linecap="round" stroke-linejoin="round"/>
<path d="M17.75 60.9375C20.2008 60.9375 22.1875 58.8388 22.1875 56.25C22.1875 53.6612 20.2008 51.5625 17.75 51.5625C15.2992 51.5625 13.3125 53.6612 13.3125 56.25C13.3125 58.8388 15.2992 60.9375 17.75 60.9375Z" stroke="#DC4618" stroke-width="2" stroke-miterlimit="10" stroke-linecap="round" stroke-linejoin="round"/>
<path d="M57.6875 56.25H64.3438V42.1875L55.4688 30.4688H42.1562V56.25H48.8125" stroke="#DC4618" stroke-width="2" stroke-miterlimit="10" stroke-linecap="round" stroke-linejoin="round"/>
<path d="M48.8125 23.4375H53.25" stroke="#DC4618" stroke-width="2" stroke-miterlimit="10" stroke-linecap="round" stroke-linejoin="round"/>
<path d="M24.4062 30.4688V44.5312" stroke="#DC4618" stroke-width="2" stroke-miterlimit="10" stroke-linecap="round" stroke-linejoin="round"/>
<path d="M17.75 37.5H31.0625" stroke="#DC4618" stroke-width="2" stroke-miterlimit="10" stroke-linecap="round" stroke-linejoin="round"/>
</svg>
