<svg width="125" height="16" viewBox="0 0 125 16" fill="none" xmlns="http://www.w3.org/2000/svg">
<path d="M4.81534 12H0.948153V1.09091H4.8473C5.9446 1.09091 6.8892 1.3093 7.68111 1.74609C8.47301 2.17933 9.08203 2.80256 9.50817 3.61577C9.93786 4.42898 10.1527 5.40199 10.1527 6.5348C10.1527 7.67116 9.93786 8.64773 9.50817 9.46449C9.08203 10.2812 8.46946 10.908 7.67045 11.3448C6.875 11.7816 5.9233 12 4.81534 12ZM3.25462 10.0238H4.71946C5.40128 10.0238 5.97479 9.90305 6.43999 9.66158C6.90874 9.41655 7.2603 9.03835 7.49467 8.52699C7.7326 8.01207 7.85156 7.34801 7.85156 6.5348C7.85156 5.72869 7.7326 5.06996 7.49467 4.55859C7.2603 4.04723 6.91051 3.67081 6.44531 3.42933C5.98011 3.18786 5.40661 3.06712 4.72479 3.06712H3.25462V10.0238ZM11.8186 12V3.81818H14.0878V12H11.8186ZM12.9585 2.76349C12.6212 2.76349 12.3318 2.65163 12.0903 2.42791C11.8524 2.20064 11.7334 1.92898 11.7334 1.61293C11.7334 1.30043 11.8524 1.03232 12.0903 0.808594C12.3318 0.581321 12.6212 0.467684 12.9585 0.467684C13.2959 0.467684 13.5835 0.581321 13.8215 0.808594C14.0629 1.03232 14.1837 1.30043 14.1837 1.61293C14.1837 1.92898 14.0629 2.20064 13.8215 2.42791C13.5835 2.65163 13.2959 2.76349 12.9585 2.76349ZM19.5916 15.2386C18.8565 15.2386 18.2262 15.1374 17.7006 14.935C17.1786 14.7362 16.7631 14.4645 16.4542 14.12C16.1452 13.7756 15.9446 13.3885 15.8523 12.9588L17.951 12.6765C18.0149 12.8398 18.1161 12.9925 18.2546 13.1346C18.3931 13.2766 18.576 13.3903 18.8033 13.4755C19.0341 13.5643 19.3146 13.6087 19.6449 13.6087C20.1385 13.6087 20.5451 13.4879 20.8647 13.2464C21.1879 13.0085 21.3494 12.609 21.3494 12.0479V10.5511H21.2536C21.1541 10.7784 21.005 10.9933 20.8061 11.1957C20.6072 11.3981 20.3516 11.5632 20.0391 11.6911C19.7266 11.8189 19.3537 11.8828 18.9205 11.8828C18.3061 11.8828 17.7468 11.7408 17.2425 11.4567C16.7418 11.169 16.3423 10.7305 16.044 10.141C15.7493 9.54794 15.6019 8.79865 15.6019 7.89311C15.6019 6.96626 15.7528 6.19212 16.0547 5.57067C16.3565 4.94922 16.7578 4.48402 17.2585 4.17507C17.7628 3.86612 18.315 3.71165 18.9151 3.71165C19.3732 3.71165 19.7567 3.78977 20.0657 3.94602C20.3746 4.09872 20.6232 4.29048 20.8114 4.52131C21.0032 4.74858 21.1506 4.9723 21.2536 5.19247H21.3388V3.81818H23.592V12.0799C23.592 12.7759 23.4215 13.3583 23.0806 13.8271C22.7397 14.2958 22.2674 14.6474 21.6637 14.8817C21.0636 15.1197 20.3729 15.2386 19.5916 15.2386ZM19.6396 10.1783C20.0053 10.1783 20.3143 10.0877 20.5664 9.90661C20.8221 9.72195 21.0174 9.45916 21.1523 9.11825C21.2908 8.77379 21.3601 8.36186 21.3601 7.88246C21.3601 7.40305 21.2926 6.98757 21.1577 6.63601C21.0227 6.28089 20.8274 6.00568 20.5717 5.81037C20.3161 5.61506 20.0053 5.5174 19.6396 5.5174C19.2667 5.5174 18.9524 5.61861 18.6967 5.82102C18.4411 6.01989 18.2475 6.29687 18.1161 6.65199C17.9847 7.0071 17.919 7.41726 17.919 7.88246C17.919 8.35476 17.9847 8.76314 18.1161 9.1076C18.2511 9.44851 18.4446 9.71307 18.6967 9.90128C18.9524 10.0859 19.2667 10.1783 19.6396 10.1783ZM25.3977 12V3.81818H27.6669V12H25.3977ZM26.5376 2.76349C26.2003 2.76349 25.9109 2.65163 25.6694 2.42791C25.4315 2.20064 25.3125 1.92898 25.3125 1.61293C25.3125 1.30043 25.4315 1.03232 25.6694 0.808594C25.9109 0.581321 26.2003 0.467684 26.5376 0.467684C26.875 0.467684 27.1626 0.581321 27.4006 0.808594C27.642 1.03232 27.7628 1.30043 27.7628 1.61293C27.7628 1.92898 27.642 2.20064 27.4006 2.42791C27.1626 2.65163 26.875 2.76349 26.5376 2.76349ZM33.8366 3.81818V5.52273H28.9094V3.81818H33.8366ZM30.028 1.85795H32.2971V9.4858C32.2971 9.69531 32.3291 9.85866 32.393 9.97585C32.4569 10.0895 32.5457 10.1694 32.6594 10.2156C32.7765 10.2617 32.9115 10.2848 33.0642 10.2848C33.1707 10.2848 33.2773 10.2759 33.3838 10.2582C33.4903 10.2369 33.572 10.2209 33.6288 10.2102L33.9857 11.8988C33.8721 11.9343 33.7123 11.9751 33.5063 12.0213C33.3003 12.071 33.05 12.1012 32.7552 12.1119C32.2084 12.1332 31.729 12.0604 31.317 11.8935C30.9086 11.7266 30.5908 11.4673 30.3635 11.1158C30.1363 10.7642 30.0244 10.3203 30.028 9.78409V1.85795ZM37.6478 12.1545C37.1258 12.1545 36.6606 12.0639 36.2522 11.8828C35.8438 11.6982 35.5207 11.4265 35.2828 11.0678C35.0484 10.7056 34.9312 10.2546 34.9312 9.71484C34.9312 9.2603 35.0146 8.87855 35.1816 8.5696C35.3485 8.26065 35.5757 8.01207 35.8634 7.82386C36.151 7.63565 36.4777 7.49361 36.8435 7.39773C37.2128 7.30185 37.5999 7.23438 38.0047 7.19531C38.4806 7.1456 38.8641 7.09943 39.1553 7.05682C39.4465 7.01065 39.6578 6.94318 39.7892 6.8544C39.9205 6.76562 39.9862 6.63423 39.9862 6.46023V6.42827C39.9862 6.09091 39.8797 5.8299 39.6666 5.64524C39.4571 5.46058 39.1588 5.36825 38.7718 5.36825C38.3634 5.36825 38.0384 5.45881 37.797 5.63991C37.5555 5.81747 37.3957 6.04119 37.3176 6.31108L35.2188 6.14062C35.3254 5.64347 35.5349 5.21378 35.8474 4.85156C36.1599 4.4858 36.5629 4.20526 37.0566 4.00994C37.5537 3.81108 38.129 3.71165 38.7824 3.71165C39.2369 3.71165 39.672 3.76491 40.0874 3.87145C40.5065 3.97798 40.8776 4.14311 41.2007 4.36683C41.5274 4.59055 41.7849 4.8782 41.9731 5.22976C42.1613 5.57777 42.2554 5.99503 42.2554 6.48153V12H40.1034V10.8654H40.0395C39.9081 11.1211 39.7323 11.3466 39.5122 11.5419C39.292 11.7337 39.0274 11.8846 38.7185 11.9947C38.4095 12.1012 38.0526 12.1545 37.6478 12.1545ZM38.2977 10.5884C38.6315 10.5884 38.9262 10.5227 39.1819 10.3913C39.4376 10.2564 39.6382 10.0753 39.7838 9.84801C39.9294 9.62074 40.0022 9.36328 40.0022 9.07564V8.20739C39.9312 8.25355 39.8335 8.29616 39.7093 8.33523C39.5885 8.37074 39.4518 8.40447 39.2991 8.43643C39.1464 8.46484 38.9937 8.49148 38.841 8.51634C38.6883 8.53764 38.5498 8.55717 38.4255 8.57493C38.1592 8.61399 37.9266 8.67614 37.7277 8.76136C37.5289 8.84659 37.3744 8.962 37.2643 9.1076C37.1542 9.24964 37.0992 9.4272 37.0992 9.64027C37.0992 9.94922 37.211 10.1854 37.4347 10.3487C37.662 10.5085 37.9497 10.5884 38.2977 10.5884ZM46.2851 1.09091V12H44.0159V1.09091H46.2851ZM51.6171 1.09091H54.4616L57.4658 8.42045H57.5937L60.5979 1.09091H63.4424V12H61.2052V4.8995H61.1146L58.2915 11.9467H56.768L53.9449 4.87287H53.8543V12H51.6171V1.09091ZM67.6332 12.1545C67.1112 12.1545 66.646 12.0639 66.2376 11.8828C65.8292 11.6982 65.506 11.4265 65.2681 11.0678C65.0337 10.7056 64.9165 10.2546 64.9165 9.71484C64.9165 9.2603 65 8.87855 65.1669 8.5696C65.3338 8.26065 65.5611 8.01207 65.8487 7.82386C66.1364 7.63565 66.4631 7.49361 66.8288 7.39773C67.1982 7.30185 67.5852 7.23438 67.9901 7.19531C68.4659 7.1456 68.8494 7.09943 69.1406 7.05682C69.4318 7.01065 69.6431 6.94318 69.7745 6.8544C69.9059 6.76562 69.9716 6.63423 69.9716 6.46023V6.42827C69.9716 6.09091 69.8651 5.8299 69.652 5.64524C69.4425 5.46058 69.1442 5.36825 68.7571 5.36825C68.3487 5.36825 68.0238 5.45881 67.7823 5.63991C67.5408 5.81747 67.381 6.04119 67.3029 6.31108L65.2042 6.14062C65.3107 5.64347 65.5202 5.21378 65.8327 4.85156C66.1452 4.4858 66.5483 4.20526 67.0419 4.00994C67.5391 3.81108 68.1143 3.71165 68.7678 3.71165C69.2223 3.71165 69.6573 3.76491 70.0728 3.87145C70.4918 3.97798 70.8629 4.14311 71.1861 4.36683C71.5128 4.59055 71.7702 4.8782 71.9585 5.22976C72.1467 5.57777 72.2408 5.99503 72.2408 6.48153V12H70.0888V10.8654H70.0249C69.8935 11.1211 69.7177 11.3466 69.4975 11.5419C69.2773 11.7337 69.0128 11.8846 68.7038 11.9947C68.3949 12.1012 68.038 12.1545 67.6332 12.1545ZM68.283 10.5884C68.6168 10.5884 68.9116 10.5227 69.1673 10.3913C69.4229 10.2564 69.6236 10.0753 69.7692 9.84801C69.9148 9.62074 69.9876 9.36328 69.9876 9.07564V8.20739C69.9165 8.25355 69.8189 8.29616 69.6946 8.33523C69.5739 8.37074 69.4371 8.40447 69.2844 8.43643C69.1317 8.46484 68.979 8.49148 68.8263 8.51634C68.6737 8.53764 68.5352 8.55717 68.4109 8.57493C68.1445 8.61399 67.9119 8.67614 67.7131 8.76136C67.5142 8.84659 67.3597 8.962 67.2496 9.1076C67.1396 9.24964 67.0845 9.4272 67.0845 9.64027C67.0845 9.94922 67.1964 10.1854 67.4201 10.3487C67.6474 10.5085 67.935 10.5884 68.283 10.5884ZM74.0012 12V3.81818H76.2012V5.24574H76.2864C76.4355 4.73793 76.6859 4.3544 77.0375 4.09517C77.389 3.83239 77.7939 3.70099 78.252 3.70099C78.3656 3.70099 78.4881 3.7081 78.6195 3.7223C78.7509 3.73651 78.8663 3.75604 78.9657 3.78089V5.79439C78.8592 5.76243 78.7118 5.73402 78.5236 5.70916C78.3354 5.6843 78.1632 5.67188 78.0069 5.67188C77.6731 5.67188 77.3748 5.74467 77.112 5.89027C76.8528 6.03232 76.6468 6.23118 76.4941 6.48686C76.345 6.74254 76.2704 7.03729 76.2704 7.37109V12H74.0012ZM82.195 9.6456L82.2004 6.92365H82.5306L85.1514 3.81818H87.7561L84.2352 7.9304H83.6972L82.195 9.6456ZM80.1389 12V1.09091H82.4081V12H80.1389ZM85.2526 12L82.8449 8.43643L84.3577 6.8331L87.9106 12H85.2526ZM92.2612 12.1598C91.4196 12.1598 90.6951 11.9893 90.0879 11.6484C89.4842 11.304 89.019 10.8175 88.6923 10.1889C88.3656 9.55682 88.2022 8.8093 88.2022 7.94638C88.2022 7.10476 88.3656 6.36612 88.6923 5.73047C89.019 5.09482 89.4789 4.59943 90.0719 4.24432C90.6685 3.8892 91.3681 3.71165 92.1706 3.71165C92.7104 3.71165 93.2129 3.79865 93.6781 3.97266C94.1468 4.14311 94.5552 4.40057 94.9032 4.74503C95.2548 5.08949 95.5282 5.52273 95.7235 6.04474C95.9189 6.56321 96.0165 7.17045 96.0165 7.86648V8.4897H89.1078V7.08345H93.8805C93.8805 6.75675 93.8095 6.46733 93.6674 6.2152C93.5254 5.96307 93.3283 5.76598 93.0762 5.62393C92.8276 5.47834 92.5382 5.40554 92.2079 5.40554C91.8635 5.40554 91.5581 5.48544 91.2917 5.64524C91.0289 5.80149 90.823 6.01278 90.6738 6.27912C90.5247 6.5419 90.4483 6.83487 90.4448 7.15803V8.49503C90.4448 8.89986 90.5194 9.24964 90.6685 9.54439C90.8212 9.83913 91.036 10.0664 91.313 10.2262C91.59 10.386 91.9185 10.4659 92.2985 10.4659C92.5506 10.4659 92.7814 10.4304 92.9909 10.3594C93.2005 10.2884 93.3798 10.1818 93.5289 10.0398C93.6781 9.89773 93.7917 9.72372 93.8699 9.51776L95.9686 9.65625C95.862 10.1605 95.6436 10.6009 95.3134 10.9773C94.9867 11.3501 94.5641 11.6413 94.0456 11.8509C93.5307 12.0568 92.9359 12.1598 92.2612 12.1598ZM101.849 3.81818V5.52273H96.9221V3.81818H101.849ZM98.0407 1.85795H100.31V9.4858C100.31 9.69531 100.342 9.85866 100.406 9.97585C100.47 10.0895 100.558 10.1694 100.672 10.2156C100.789 10.2617 100.924 10.2848 101.077 10.2848C101.183 10.2848 101.29 10.2759 101.396 10.2582C101.503 10.2369 101.585 10.2209 101.642 10.2102L101.998 11.8988C101.885 11.9343 101.725 11.9751 101.519 12.0213C101.313 12.071 101.063 12.1012 100.768 12.1119C100.221 12.1332 99.7417 12.0604 99.3297 11.8935C98.9213 11.7266 98.6035 11.4673 98.3762 11.1158C98.149 10.7642 98.0371 10.3203 98.0407 9.78409V1.85795ZM103.327 12V3.81818H105.597V12H103.327ZM104.467 2.76349C104.13 2.76349 103.841 2.65163 103.599 2.42791C103.361 2.20064 103.242 1.92898 103.242 1.61293C103.242 1.30043 103.361 1.03232 103.599 0.808594C103.841 0.581321 104.13 0.467684 104.467 0.467684C104.805 0.467684 105.092 0.581321 105.33 0.808594C105.572 1.03232 105.692 1.30043 105.692 1.61293C105.692 1.92898 105.572 2.20064 105.33 2.42791C105.092 2.65163 104.805 2.76349 104.467 2.76349ZM109.684 7.26989V12H107.414V3.81818H109.577V5.26172H109.673C109.854 4.78587 110.158 4.40945 110.584 4.13246C111.01 3.85192 111.527 3.71165 112.134 3.71165C112.702 3.71165 113.197 3.83594 113.62 4.08452C114.043 4.3331 114.371 4.68821 114.605 5.14986C114.84 5.60795 114.957 6.15483 114.957 6.79048V12H112.688V7.19531C112.691 6.6946 112.563 6.30398 112.304 6.02344C112.045 5.73935 111.688 5.5973 111.234 5.5973C110.928 5.5973 110.658 5.663 110.424 5.79439C110.193 5.92578 110.012 6.11754 109.881 6.36967C109.753 6.61825 109.687 6.91832 109.684 7.26989ZM120.431 15.2386C119.696 15.2386 119.066 15.1374 118.54 14.935C118.018 14.7362 117.603 14.4645 117.294 14.12C116.985 13.7756 116.784 13.3885 116.692 12.9588L118.791 12.6765C118.855 12.8398 118.956 12.9925 119.094 13.1346C119.233 13.2766 119.416 13.3903 119.643 13.4755C119.874 13.5643 120.154 13.6087 120.485 13.6087C120.978 13.6087 121.385 13.4879 121.705 13.2464C122.028 13.0085 122.189 12.609 122.189 12.0479V10.5511H122.093C121.994 10.7784 121.845 10.9933 121.646 11.1957C121.447 11.3981 121.191 11.5632 120.879 11.6911C120.566 11.8189 120.194 11.8828 119.76 11.8828C119.146 11.8828 118.587 11.7408 118.082 11.4567C117.582 11.169 117.182 10.7305 116.884 10.141C116.589 9.54794 116.442 8.79865 116.442 7.89311C116.442 6.96626 116.593 6.19212 116.895 5.57067C117.196 4.94922 117.598 4.48402 118.098 4.17507C118.603 3.86612 119.155 3.71165 119.755 3.71165C120.213 3.71165 120.597 3.78977 120.906 3.94602C121.214 4.09872 121.463 4.29048 121.651 4.52131C121.843 4.74858 121.99 4.9723 122.093 5.19247H122.179V3.81818H124.432V12.0799C124.432 12.7759 124.261 13.3583 123.92 13.8271C123.58 14.2958 123.107 14.6474 122.504 14.8817C121.903 15.1197 121.213 15.2386 120.431 15.2386ZM120.479 10.1783C120.845 10.1783 121.154 10.0877 121.406 9.90661C121.662 9.72195 121.857 9.45916 121.992 9.11825C122.131 8.77379 122.2 8.36186 122.2 7.88246C122.2 7.40305 122.132 6.98757 121.998 6.63601C121.863 6.28089 121.667 6.00568 121.412 5.81037C121.156 5.61506 120.845 5.5174 120.479 5.5174C120.107 5.5174 119.792 5.61861 119.537 5.82102C119.281 6.01989 119.087 6.29687 118.956 6.65199C118.825 7.0071 118.759 7.41726 118.759 7.88246C118.759 8.35476 118.825 8.76314 118.956 9.1076C119.091 9.44851 119.284 9.71307 119.537 9.90128C119.792 10.0859 120.107 10.1783 120.479 10.1783Z" fill="black"/>
</svg>
