<svg width="47" height="73" viewBox="0 0 47 73" fill="none" xmlns="http://www.w3.org/2000/svg">
<path d="M7.16663 15.6901C7.16663 15.0755 7.56219 14.5749 8.04788 14.5749C8.53356 14.5749 8.92913 15.0755 8.92913 15.6901C8.92913 16.3048 8.53357 16.8054 8.04788 16.8054C7.5622 16.8054 7.16663 16.3048 7.16663 15.6901ZM10.9036 16.8054C11.3893 16.8054 11.7849 16.3048 11.7849 15.6901C11.7849 15.0755 11.3893 14.5749 10.9036 14.5749C10.4179 14.5749 10.0224 15.0755 10.0224 15.6901C10.0224 16.3048 10.4179 16.8054 10.9036 16.8054ZM24.5161 16.4949H33.8977C34.2482 16.4949 34.5336 16.1358 34.5336 15.6901C34.5336 15.2444 34.2482 14.8853 33.8977 14.8853H24.5161C24.1656 14.8853 23.8802 15.2465 23.8802 15.6901C23.8802 16.1337 24.1656 16.4949 24.5161 16.4949ZM13.7574 16.8054C14.243 16.8054 14.6386 16.3048 14.6386 15.6901C14.6386 15.0755 14.243 14.5749 13.7574 14.5749C13.2717 14.5749 12.8761 15.0755 12.8761 15.6901C12.8761 16.3048 13.2717 16.8054 13.7574 16.8054ZM12.0132 35.9406C12.0132 29.6312 16.069 24.4985 21.0543 24.4985C26.0397 24.4985 30.0954 29.6313 30.0954 35.9406C30.0954 42.25 26.0397 47.3827 21.0543 47.3827C16.0689 47.3827 12.0132 42.2499 12.0132 35.9406ZM27.8809 31.2492H25.6627C25.893 32.4448 26.0366 33.7523 26.0783 35.1358H28.7988C28.7087 33.7375 28.3866 32.4216 27.8825 31.2492H27.8809ZM18.2006 42.2414C18.2974 42.5329 18.4009 42.816 18.511 43.0821C19.0534 44.3938 19.7244 45.2747 20.4187 45.6147V42.2414H18.2006ZM20.4187 40.6319V36.7453H17.3077C17.351 38.1183 17.5079 39.4363 17.7666 40.6319H20.4204H20.4187ZM23.5982 43.0842C23.7084 42.816 23.8119 42.535 23.9087 42.2435H21.6905V45.6168C22.3848 45.2768 23.0558 44.396 23.5982 43.0842ZM24.3443 40.6319C24.603 39.4363 24.7599 38.1204 24.8033 36.7453H21.6922V40.6319H24.3459H24.3443ZM25.6628 40.6319H27.8809C28.3867 39.4595 28.7071 38.1436 28.7972 36.7453H26.0767C26.0366 38.1288 25.8931 39.4363 25.6611 40.6319H25.6628ZM24.3443 31.2489H21.6905V35.1355H24.8016C24.7582 33.7625 24.6013 32.4444 24.3426 31.2489H24.3443ZM23.9087 29.6394C23.8119 29.3479 23.7084 29.0648 23.5982 28.7987C23.0558 27.4869 22.3849 26.6061 21.6905 26.266V29.6394H23.9087ZM18.5109 28.7987C18.4008 29.0669 18.2973 29.3478 18.2005 29.6394H20.4186V26.266C19.7243 26.6061 19.0534 27.4869 18.5109 28.7987ZM17.7649 31.2489C17.5062 32.4444 17.3493 33.7603 17.3059 35.1354H20.417V31.2489H17.7632H17.7649ZM16.4464 31.2489H14.2282C13.7225 32.4212 13.402 33.7371 13.3119 35.1354H16.0325C16.0725 33.7519 16.2161 32.4444 16.448 31.2489H16.4464ZM13.3119 36.745C13.4021 38.1433 13.7242 39.4592 14.2282 40.6315H16.4464C16.216 39.436 16.0725 38.1285 16.0308 36.745H13.3102H13.3119ZM17.9034 44.928C17.4845 44.1739 17.1206 43.2677 16.8286 42.2433H15.0944C15.8521 43.3882 16.8118 44.3133 17.9017 44.928H17.9034ZM27.0129 42.2412H25.2787C24.9866 43.2656 24.6228 44.1718 24.2039 44.9258C25.2954 44.3112 26.2551 43.386 27.0112 42.2412H27.0129ZM24.2055 26.9544C24.6245 27.7085 24.9883 28.6146 25.2804 29.6391H27.0145C26.2568 28.4942 25.2971 27.5691 24.2072 26.9544H24.2055ZM15.0944 29.6391H16.8285C17.1206 28.6146 17.4845 27.7085 17.9034 26.9544C16.8118 27.5691 15.8521 28.4943 15.096 29.6391H15.0944ZM42.5834 44.8096C42.5834 49.6023 39.5024 53.5014 35.7154 53.5014H7.2065C5.66763 53.5014 4.41418 51.9172 4.41418 49.9697L4.41585 14.9211C4.41585 12.9736 5.66763 11.3894 7.20817 11.3894H34.9023C36.4411 11.3894 37.6946 12.9736 37.6946 14.9211V36.4875C40.5203 37.5647 42.5847 40.8894 42.5847 44.8122L42.5834 44.8096ZM5.68754 14.9212V18.3811H36.4213V14.9212C36.4213 13.8609 35.7403 12.999 34.9024 12.999L7.20663 12.9969C6.36879 12.9969 5.6878 13.8587 5.6878 14.9191L5.68754 14.9212ZM31.7379 51.8922C31.092 51.3092 30.5296 50.5889 30.0773 49.7651H8.00434C7.65385 49.7651 7.36843 49.406 7.36843 48.9603V22.9226C7.36843 22.479 7.65384 22.1178 8.00434 22.1178H34.1047C34.4552 22.1178 34.7406 22.479 34.7406 22.9226V36.2064C35.0594 36.1494 35.3849 36.1177 35.7153 36.1177C35.954 36.1177 36.1893 36.1325 36.4196 36.1642V19.9906H5.68763V49.9682C5.68763 51.0286 6.36862 51.8904 7.20645 51.8904H31.7362L31.7379 51.8922ZM33.4687 23.7272H8.64034V48.1557H29.3763C29.0358 47.1249 28.8472 45.9948 28.8472 44.8098C28.8472 41.012 30.7816 37.7759 33.4669 36.5971V23.7269L33.4687 23.7272ZM41.3113 44.8096C41.3113 40.904 38.8011 37.7269 35.7149 37.7269C32.6287 37.7269 30.1185 40.9038 30.1185 44.8096C30.1185 48.7152 32.6287 51.8922 35.7149 51.8922C38.8011 51.8922 41.3113 48.7153 41.3113 44.8096ZM40.1647 42.0995C40.1647 42.579 40.0161 43.0311 39.7491 43.3711L35.4678 48.7894C35.1991 49.1294 34.8436 49.3153 34.4631 49.3153C34.0842 49.3153 33.727 49.1273 33.4583 48.7894C33.4049 48.7218 33.3548 48.6478 33.3097 48.5697L31.5723 45.8026C31.0849 45.0274 31.1884 43.8974 31.7993 43.2805C32.0496 43.0292 32.3617 42.8898 32.6822 42.8898C33.1178 42.8898 33.5217 43.1369 33.7938 43.5678L34.5832 44.8246L37.741 40.8282C38.0098 40.4881 38.3652 40.3022 38.7458 40.3022C39.1247 40.3022 39.4819 40.4902 39.7506 40.8282C40.0193 41.1683 40.1662 41.6182 40.1662 42.0998L40.1647 42.0995ZM38.8929 42.0995C38.8929 42.0636 38.8845 42.0129 38.8495 41.9686C38.8128 41.9221 38.7727 41.9137 38.746 41.9137C38.7176 41.9137 38.6776 41.9221 38.6425 41.9686L34.9807 46.6029C34.8521 46.7655 34.6752 46.8479 34.495 46.8373C34.3131 46.8247 34.1461 46.7148 34.0327 46.5353L32.8009 44.573C32.7625 44.5117 32.7125 44.5033 32.6858 44.5033C32.6524 44.5033 32.6223 44.516 32.5956 44.5434C32.5322 44.6068 32.5222 44.723 32.5723 44.8032L34.3197 47.5872C34.3281 47.5999 34.3347 47.6146 34.3431 47.6273C34.3481 47.6379 34.3548 47.6463 34.3598 47.6548C34.3965 47.6991 34.4366 47.7097 34.4633 47.7097C34.4916 47.7097 34.5317 47.7012 34.5667 47.6548L38.848 42.2365C38.8847 42.1901 38.8914 42.1394 38.8914 42.1056L38.8929 42.0995Z" fill="#DC4618"/>
</svg>
