<svg width="47" height="65" viewBox="0 0 47 65" fill="none" xmlns="http://www.w3.org/2000/svg">
<g clip-path="url(#clip0_63_2545)">
<path d="M9.07716 50.2587L11.8619 32.0502C11.9694 31.3478 11.6447 30.6579 11.1368 30.5093C10.6289 30.3607 10.13 30.8098 10.0226 31.5122L7.23783 49.7206C7.13038 50.4231 7.45507 51.1129 7.96298 51.2615C8.47089 51.4101 8.96971 50.9611 9.07716 50.2587ZM35.2881 32.0545L38.1236 50.2766C38.2328 50.9785 38.7328 51.425 39.2403 51.274C39.7478 51.1229 40.0707 50.4314 39.9615 49.7296L37.126 31.5075C37.0167 30.8056 36.5168 30.359 36.0093 30.5101C35.5018 30.6612 35.1788 31.3526 35.2881 32.0545Z" fill="#DC4618"/>
<path d="M44.4045 24.5592L24.5971 13.2111C24.1101 12.9319 23.194 12.9292 22.7057 13.2056L2.65399 24.5592L22.7061 35.9124C23.1938 36.1888 24.1099 36.1862 24.5975 35.907L44.4045 24.5592V24.5592ZM25.3169 38.3091C24.371 38.8508 22.94 38.855 21.9934 38.3184L1.12172 26.5011C-0.373975 25.6531 -0.373975 23.4639 1.12213 22.6171L21.9935 10.7994C22.9409 10.2632 24.3719 10.2674 25.3169 10.8093L45.9178 22.6119C47.4079 23.4652 47.4079 25.6533 45.9179 26.5064L25.3169 38.3091ZM38.5665 48.8824C34.0685 52.5364 28.9431 54.4909 23.6088 54.4909C18.2679 54.4909 13.1365 52.5316 8.6346 48.8692C8.18714 48.5051 7.61102 48.7117 7.34779 49.3305C7.08457 49.9494 7.23392 50.7461 7.68138 51.1102C12.4702 55.0062 17.9304 57.0909 23.6088 57.0909C29.2802 57.0909 34.7339 55.0112 39.5187 51.1242C39.9664 50.7606 40.1161 49.964 39.8532 49.3449C39.5902 48.7258 39.0142 48.5187 38.5665 48.8824Z" fill="#DC4618"/>
<path d="M45.1602 24.3148V43.1186C45.1602 43.8366 45.581 44.4186 46.1002 44.4186C46.6193 44.4186 47.0402 43.8366 47.0402 43.1186V24.3148C47.0402 23.5968 46.6193 23.0148 46.1002 23.0148C45.581 23.0148 45.1602 23.5968 45.1602 24.3148Z" fill="#DC4618"/>
</g>
<defs>
<clipPath id="clip0_63_2545">
<rect width="47" height="65" rx="7" fill="white"/>
</clipPath>
</defs>
</svg>
