<svg width="1120" height="868" viewBox="0 0 1120 868" fill="none" xmlns="http://www.w3.org/2000/svg">
<path fill-rule="evenodd" clip-rule="evenodd" d="M1119.69 433.908C1119.69 673.533 819.819 867.789 449.899 867.817C466.09 867.79 479.202 859.28 479.202 848.786C479.202 838.275 466.048 829.755 449.822 829.755C449.797 829.755 449.772 829.755 449.748 829.755C449.772 829.755 449.797 829.755 449.821 829.755C787.325 829.755 1060.93 652.528 1060.93 433.908C1060.93 215.289 787.325 38.0621 449.821 38.0621C351.63 38.0621 256.823 53.0628 171.402 81.4337C156.963 86.2293 139.257 82.5349 131.853 73.1821C124.45 63.8293 130.153 52.3598 144.592 47.5642C238.262 16.4536 342.252 0 449.821 0C819.777 0 1119.69 194.267 1119.69 433.908ZM449.748 829.755C300.224 829.743 159.127 794.847 48.6757 732.538C36.4395 725.635 17.8812 726.465 7.2247 734.391C-3.43179 742.317 -2.15113 754.339 10.0851 761.241C131.153 829.539 285.949 867.817 449.822 867.817C449.848 867.817 449.873 867.817 449.899 867.817C449.873 867.817 449.847 867.817 449.821 867.817C433.595 867.817 420.441 859.296 420.441 848.786C420.441 838.291 433.555 829.78 449.748 829.755Z" fill="#E95272" fill-opacity="0.2"/>
</svg>
