<svg width="7" height="11" viewBox="0 0 7 11" fill="none" xmlns="http://www.w3.org/2000/svg">
<path d="M5.0932 1.99404H6.70158C6.84955 1.99404 6.96964 1.89652 6.96964 1.77637V0.470354C6.96964 0.350201 6.84955 0.252686 6.70158 0.252686H5.0932C3.46766 0.252686 2.1445 1.32666 2.1445 2.64704V4.17072H0.268063C0.120092 4.17072 0 4.26824 0 4.38839V5.6944C0 5.81456 0.120092 5.91207 0.268063 5.91207H2.1445V10.4831C2.1445 10.6033 2.2646 10.7008 2.41257 10.7008H4.02095C4.16892 10.7008 4.28901 10.6033 4.28901 10.4831V5.91207H6.16545C6.28072 5.91207 6.38312 5.852 6.42011 5.76319L6.95624 4.45717C6.98358 4.391 6.96964 4.31787 6.91924 4.26084C6.86831 4.20424 6.78789 4.17072 6.70158 4.17072H4.28901V2.64704C4.28901 2.28702 4.64982 1.99404 5.0932 1.99404Z" fill="#0A142F"/>
</svg>
