<svg width="436" height="466" viewBox="0 0 436 466" fill="none" xmlns="http://www.w3.org/2000/svg">
<mask id="mask0_23_336" style="mask-type:luminance" maskUnits="userSpaceOnUse" x="0" y="18" width="594" height="466">
<rect y="18" width="594" height="466" fill="white"/>
</mask>
<g mask="url(#mask0_23_336)">
<path fill-rule="evenodd" clip-rule="evenodd" d="M167.062 257.465C218.116 257.465 259.504 214.173 259.504 160.77C259.504 107.367 218.116 64.0747 167.062 64.0747C116.008 64.0747 74.6211 107.367 74.6211 160.77C74.6211 214.173 116.008 257.465 167.062 257.465Z" fill="#BFCBBA"/>
<rect width="220.949" height="30.7883" transform="matrix(0.855219 -0.518266 0.484508 0.874787 353.576 161.02)" fill="#DC4618"/>
<path fill-rule="evenodd" clip-rule="evenodd" d="M324.183 348.075L247.74 249.643L229.317 262.442L305.806 363.396L324.183 348.075Z" fill="#DC4618"/>
<path fill-rule="evenodd" clip-rule="evenodd" d="M63.567 381.845L153.852 312.85L145.558 300.366L54.0433 362.275L63.567 381.845Z" fill="#EAE8E3"/>
<rect width="62.3328" height="9.49562" transform="matrix(0.540537 0.84132 -0.818087 0.575095 227.177 321.928)" fill="#60BEBF"/>
<path fill-rule="evenodd" clip-rule="evenodd" d="M306.877 268.727L271.76 223.995L256.807 233L291.027 281.892L306.877 268.727Z" fill="#3A8EAA"/>
<path fill-rule="evenodd" clip-rule="evenodd" d="M554.106 -66.9156L189.898 199.567L207.853 224.111L585.447 -26.2008L554.106 -66.9156Z" fill="#2A3E4C"/>
<path fill-rule="evenodd" clip-rule="evenodd" d="M212.865 228.877L338.896 156.783L347.973 173.883L223.446 245.269L212.865 228.877Z" fill="#E5AB17"/>
<rect width="143.917" height="19.2074" transform="matrix(0.751084 -0.660207 0.626295 0.779586 42.3223 430.146)" fill="#EAE8E3"/>
<path fill-rule="evenodd" clip-rule="evenodd" d="M117.259 353.186L162.324 315.54L170.89 325.401L125.825 363.046L117.259 353.186Z" fill="#E5AB17"/>
<path d="M414.44 175.766L539.441 103.981L544.246 113.81L419.245 185.594L414.44 175.766Z" fill="#28203D"/>
<path fill-rule="evenodd" clip-rule="evenodd" d="M425.092 93.6226L545.852 17.4666L551.301 26.9205L430.541 103.076L425.092 93.6226Z" fill="#BFCBBA"/>
<rect width="142.41" height="2.76521" transform="matrix(0.881763 -0.471693 0.439227 0.898376 394.692 206.222)" fill="#849C9B"/>
<rect width="361.951" height="8.0831" transform="matrix(0.604721 0.796438 -0.769191 0.639019 88.6807 86.2097)" fill="#28203D"/>
<path fill-rule="evenodd" clip-rule="evenodd" d="M231.903 300.212L84.744 113.536L61.704 129.224L206.516 320.147L231.903 300.212Z" fill="#849C9B"/>
<path fill-rule="evenodd" clip-rule="evenodd" d="M371.766 295.171C379.594 293.207 384.425 285.013 382.558 276.87C380.69 268.726 372.831 263.717 365.004 265.681C357.176 267.645 352.345 275.838 354.212 283.982C356.08 292.125 363.939 297.135 371.766 295.171Z" fill="#849C9B"/>
<path fill-rule="evenodd" clip-rule="evenodd" d="M69.6293 292.511C83.7253 288.975 92.4262 274.219 89.0633 259.554C85.7003 244.888 71.547 235.867 57.4509 239.404C43.3549 242.94 34.6539 257.696 38.0169 272.361C41.3799 287.027 55.5332 296.048 69.6293 292.511Z" fill="#EAE8E3"/>
<path fill-rule="evenodd" clip-rule="evenodd" d="M183.051 175.788C189.183 174.249 192.969 167.829 191.506 161.449C190.043 155.069 183.885 151.144 177.753 152.682C171.62 154.221 167.835 160.641 169.298 167.021C170.761 173.401 176.918 177.326 183.051 175.788Z" fill="#DC4618"/>
<path fill-rule="evenodd" clip-rule="evenodd" d="M121.029 291.971C127.132 290.44 130.899 284.052 129.443 277.702C127.987 271.353 121.859 267.447 115.756 268.978C109.653 270.51 105.886 276.898 107.342 283.247C108.798 289.597 114.926 293.503 121.029 291.971Z" fill="#BFCBBA"/>
<path d="M188.642 188.405L292.521 113.378L291.64 112.044L187.762 187.071L188.642 188.405Z" fill="#28203D"/>
<path d="M399.22 353.995L452.945 419.882L454.922 418.118L401.197 352.231L399.22 353.995Z" fill="#28203D"/>
<path d="M61.023 27.4215L114.778 97.6361L115.987 96.6228L62.2327 26.4082L61.023 27.4215Z" fill="#28203D"/>
<path d="M97.3111 367.287L29.0215 425.045L29.9959 426.306L98.2855 368.547L97.3111 367.287Z" fill="#28203D"/>
<path fill-rule="evenodd" clip-rule="evenodd" d="M448.501 295.752L434.099 278.42L432.803 279.599L447.205 296.931L430.637 311.997L431.75 313.336L448.318 298.27L462.721 315.602L464.017 314.423L449.614 297.091L466.182 282.025L465.07 280.686L448.501 295.752Z" fill="#DC4618"/>
<path fill-rule="evenodd" clip-rule="evenodd" d="M63.7729 266.002L56.3561 257.076L55.6889 257.683L63.1056 266.608L54.5735 274.367L55.1466 275.057L63.6787 267.298L71.0955 276.223L71.7628 275.616L64.346 266.691L72.878 258.933L72.3048 258.243L63.7729 266.002Z" fill="#DC4618"/>
</g>
</svg>
