<svg width="186" height="16" viewBox="0 0 186 16" fill="none" xmlns="http://www.w3.org/2000/svg">
<path d="M3.40376 12L0.282315 1.09091H2.80185L4.6076 8.67081H4.69815L6.69034 1.09091H8.84766L10.8345 8.68679H10.9304L12.7362 1.09091H15.2557L12.1342 12H9.88636L7.80895 4.86754H7.72372L5.65163 12H3.40376ZM19.2973 12.1598C18.4557 12.1598 17.7313 11.9893 17.124 11.6484C16.5203 11.304 16.0551 10.8175 15.7284 10.1889C15.4017 9.55682 15.2384 8.8093 15.2384 7.94638C15.2384 7.10476 15.4017 6.36612 15.7284 5.73047C16.0551 5.09482 16.515 4.59943 17.108 4.24432C17.7046 3.8892 18.4042 3.71165 19.2068 3.71165C19.7465 3.71165 20.249 3.79865 20.7142 3.97266C21.183 4.14311 21.5914 4.40057 21.9394 4.74503C22.2909 5.08949 22.5644 5.52273 22.7597 6.04474C22.955 6.56321 23.0526 7.17045 23.0526 7.86648V8.4897H16.1439V7.08345H20.9166C20.9166 6.75675 20.8456 6.46733 20.7036 6.2152C20.5615 5.96307 20.3644 5.76598 20.1123 5.62393C19.8637 5.47834 19.5743 5.40554 19.2441 5.40554C18.8996 5.40554 18.5942 5.48544 18.3279 5.64524C18.0651 5.80149 17.8591 6.01278 17.71 6.27912C17.5608 6.5419 17.4845 6.83487 17.4809 7.15803V8.49503C17.4809 8.89986 17.5555 9.24964 17.7046 9.54439C17.8573 9.83913 18.0722 10.0664 18.3492 10.2262C18.6262 10.386 18.9546 10.4659 19.3346 10.4659C19.5867 10.4659 19.8176 10.4304 20.0271 10.3594C20.2366 10.2884 20.4159 10.1818 20.5651 10.0398C20.7142 9.89773 20.8279 9.72372 20.906 9.51776L23.0047 9.65625C22.8982 10.1605 22.6798 10.6009 22.3495 10.9773C22.0228 11.3501 21.6002 11.6413 21.0818 11.8509C20.5669 12.0568 19.972 12.1598 19.2973 12.1598ZM24.5761 12V1.09091H26.8453V5.19247H26.9145C27.0139 4.9723 27.1578 4.74858 27.346 4.52131C27.5377 4.29048 27.7863 4.09872 28.0917 3.94602C28.4007 3.78977 28.7842 3.71165 29.2423 3.71165C29.8389 3.71165 30.3893 3.8679 30.8936 4.1804C31.3978 4.48935 31.8009 4.95632 32.1027 5.58132C32.4046 6.20277 32.5555 6.98224 32.5555 7.91974C32.5555 8.83239 32.4081 9.60298 32.1134 10.2315C31.8222 10.8565 31.4245 11.3306 30.9202 11.6538C30.4195 11.9734 29.8584 12.1332 29.2369 12.1332C28.7966 12.1332 28.422 12.0604 28.113 11.9148C27.8076 11.7692 27.5573 11.5863 27.3619 11.3661C27.1666 11.1424 27.0175 10.9169 26.9145 10.6896H26.8133V12H24.5761ZM26.7973 7.90909C26.7973 8.3956 26.8648 8.81996 26.9997 9.18217C27.1347 9.54439 27.33 9.8267 27.5857 10.0291C27.8414 10.228 28.1521 10.3274 28.5178 10.3274C28.8872 10.3274 29.1997 10.2262 29.4553 10.0238C29.711 9.81783 29.9046 9.53374 30.036 9.17152C30.1709 8.80575 30.2384 8.38494 30.2384 7.90909C30.2384 7.43679 30.1727 7.02131 30.0413 6.66264C29.9099 6.30398 29.7164 6.02344 29.4607 5.82102C29.205 5.61861 28.8907 5.5174 28.5178 5.5174C28.1485 5.5174 27.836 5.61506 27.5803 5.81037C27.3282 6.00568 27.1347 6.28267 26.9997 6.64133C26.8648 7 26.7973 7.42259 26.7973 7.90909ZM37.5839 12V1.09091H39.8904V5.59197H44.5725V1.09091H46.8737V12H44.5725V7.49361H39.8904V12H37.5839ZM52.4294 12.1598C51.602 12.1598 50.8865 11.984 50.2828 11.6325C49.6826 11.2773 49.2192 10.7837 48.8925 10.1516C48.5658 9.51598 48.4024 8.77912 48.4024 7.94105C48.4024 7.09588 48.5658 6.35724 48.8925 5.72514C49.2192 5.08949 49.6826 4.59588 50.2828 4.24432C50.8865 3.8892 51.602 3.71165 52.4294 3.71165C53.2568 3.71165 53.9706 3.8892 54.5708 4.24432C55.1744 4.59588 55.6396 5.08949 55.9664 5.72514C56.2931 6.35724 56.4564 7.09588 56.4564 7.94105C56.4564 8.77912 56.2931 9.51598 55.9664 10.1516C55.6396 10.7837 55.1744 11.2773 54.5708 11.6325C53.9706 11.984 53.2568 12.1598 52.4294 12.1598ZM52.4401 10.402C52.8165 10.402 53.1308 10.2955 53.3829 10.0824C53.635 9.86577 53.825 9.57102 53.9529 9.19815C54.0843 8.82528 54.1499 8.40092 54.1499 7.92507C54.1499 7.44922 54.0843 7.02486 53.9529 6.65199C53.825 6.27912 53.635 5.98437 53.3829 5.76776C53.1308 5.55114 52.8165 5.44283 52.4401 5.44283C52.0601 5.44283 51.7405 5.55114 51.4813 5.76776C51.2256 5.98437 51.032 6.27912 50.9007 6.65199C50.7728 7.02486 50.7089 7.44922 50.7089 7.92507C50.7089 8.40092 50.7728 8.82528 50.9007 9.19815C51.032 9.57102 51.2256 9.86577 51.4813 10.0824C51.7405 10.2955 52.0601 10.402 52.4401 10.402ZM64.7394 6.15128L62.662 6.27912C62.6265 6.10156 62.5502 5.94176 62.433 5.79972C62.3158 5.65412 62.1613 5.53871 61.9695 5.45348C61.7813 5.3647 61.5558 5.32031 61.2931 5.32031C60.9415 5.32031 60.645 5.39489 60.4035 5.54403C60.162 5.68963 60.0413 5.88494 60.0413 6.12997C60.0413 6.32528 60.1194 6.49041 60.2757 6.62536C60.4319 6.7603 60.7 6.86861 61.08 6.95028L62.5608 7.24858C63.3563 7.41193 63.9493 7.67472 64.3399 8.03693C64.7306 8.39915 64.9259 8.875 64.9259 9.46449C64.9259 10.0007 64.7678 10.4712 64.4518 10.8761C64.1393 11.2809 63.7096 11.5969 63.1627 11.8242C62.6194 12.0479 61.9926 12.1598 61.2824 12.1598C60.1993 12.1598 59.3364 11.9343 58.6936 11.4833C58.0544 11.0288 57.6798 10.4109 57.5697 9.62962L59.8016 9.51243C59.8691 9.84268 60.0324 10.0948 60.2916 10.2688C60.5509 10.4393 60.8829 10.5245 61.2877 10.5245C61.6855 10.5245 62.0051 10.4482 62.2465 10.2955C62.4916 10.1392 62.6159 9.93857 62.6194 9.69354C62.6159 9.48757 62.5289 9.31889 62.3584 9.1875C62.1879 9.05256 61.9252 8.94957 61.57 8.87855L60.1531 8.59624C59.3541 8.43643 58.7593 8.15945 58.3687 7.76527C57.9816 7.37109 57.7881 6.86861 57.7881 6.25781C57.7881 5.73224 57.9301 5.27947 58.2142 4.8995C58.5019 4.51953 58.9049 4.22656 59.4234 4.0206C59.9454 3.81463 60.5562 3.71165 61.2558 3.71165C62.2892 3.71165 63.1024 3.93004 63.6954 4.36683C64.292 4.80362 64.64 5.39844 64.7394 6.15128ZM70.7067 3.81818V5.52273H65.7795V3.81818H70.7067ZM66.8981 1.85795H69.1673V9.4858C69.1673 9.69531 69.1992 9.85866 69.2631 9.97585C69.3271 10.0895 69.4158 10.1694 69.5295 10.2156C69.6467 10.2617 69.7816 10.2848 69.9343 10.2848C70.0408 10.2848 70.1474 10.2759 70.2539 10.2582C70.3604 10.2369 70.4421 10.2209 70.4989 10.2102L70.8558 11.8988C70.7422 11.9343 70.5824 11.9751 70.3764 12.0213C70.1705 12.071 69.9201 12.1012 69.6254 12.1119C69.0785 12.1332 68.5991 12.0604 68.1871 11.8935C67.7788 11.7266 67.4609 11.4673 67.2337 11.1158C67.0064 10.7642 66.8945 10.3203 66.8981 9.78409V1.85795ZM72.1848 12V3.81818H74.454V12H72.1848ZM73.3248 2.76349C72.9874 2.76349 72.698 2.65163 72.4565 2.42791C72.2186 2.20064 72.0996 1.92898 72.0996 1.61293C72.0996 1.30043 72.2186 1.03232 72.4565 0.808594C72.698 0.581321 72.9874 0.467684 73.3248 0.467684C73.6621 0.467684 73.9498 0.581321 74.1877 0.808594C74.4292 1.03232 74.5499 1.30043 74.5499 1.61293C74.5499 1.92898 74.4292 2.20064 74.1877 2.42791C73.9498 2.65163 73.6621 2.76349 73.3248 2.76349ZM78.5409 7.26989V12H76.2718V3.81818H78.4344V5.26172H78.5303C78.7114 4.78587 79.015 4.40945 79.4411 4.13246C79.8673 3.85192 80.384 3.71165 80.9912 3.71165C81.5594 3.71165 82.0548 3.83594 82.4774 4.08452C82.8999 4.3331 83.2284 4.68821 83.4628 5.14986C83.6972 5.60795 83.8144 6.15483 83.8144 6.79048V12H81.5452V7.19531C81.5487 6.6946 81.4209 6.30398 81.1617 6.02344C80.9024 5.73935 80.5455 5.5973 80.091 5.5973C79.7856 5.5973 79.5157 5.663 79.2813 5.79439C79.0505 5.92578 78.8694 6.11754 78.738 6.36967C78.6102 6.61825 78.5445 6.91832 78.5409 7.26989ZM89.2889 15.2386C88.5538 15.2386 87.9235 15.1374 87.3979 14.935C86.8759 14.7362 86.4604 14.4645 86.1515 14.12C85.8425 13.7756 85.6419 13.3885 85.5495 12.9588L87.6483 12.6765C87.7122 12.8398 87.8134 12.9925 87.9519 13.1346C88.0904 13.2766 88.2733 13.3903 88.5005 13.4755C88.7314 13.5643 89.0119 13.6087 89.3422 13.6087C89.8358 13.6087 90.2424 13.4879 90.562 13.2464C90.8851 13.0085 91.0467 12.609 91.0467 12.0479V10.5511H90.9508C90.8514 10.7784 90.7022 10.9933 90.5034 11.1957C90.3045 11.3981 90.0488 11.5632 89.7363 11.6911C89.4238 11.8189 89.051 11.8828 88.6177 11.8828C88.0034 11.8828 87.4441 11.7408 86.9398 11.4567C86.4391 11.169 86.0396 10.7305 85.7413 10.141C85.4466 9.54794 85.2992 8.79865 85.2992 7.89311C85.2992 6.96626 85.4501 6.19212 85.752 5.57067C86.0538 4.94922 86.4551 4.48402 86.9558 4.17507C87.46 3.86612 88.0123 3.71165 88.6124 3.71165C89.0705 3.71165 89.454 3.78977 89.763 3.94602C90.0719 4.09872 90.3205 4.29048 90.5087 4.52131C90.7005 4.74858 90.8478 4.9723 90.9508 5.19247H91.036V3.81818H93.2892V12.0799C93.2892 12.7759 93.1188 13.3583 92.7779 13.8271C92.437 14.2958 91.9647 14.6474 91.361 14.8817C90.7608 15.1197 90.0701 15.2386 89.2889 15.2386ZM89.3368 10.1783C89.7026 10.1783 90.0115 10.0877 90.2637 9.90661C90.5194 9.72195 90.7147 9.45916 90.8496 9.11825C90.9881 8.77379 91.0574 8.36186 91.0574 7.88246C91.0574 7.40305 90.9899 6.98757 90.8549 6.63601C90.72 6.28089 90.5247 6.00568 90.269 5.81037C90.0133 5.61506 89.7026 5.5174 89.3368 5.5174C88.964 5.5174 88.6497 5.61861 88.394 5.82102C88.1383 6.01989 87.9448 6.29687 87.8134 6.65199C87.682 7.0071 87.6163 7.41726 87.6163 7.88246C87.6163 8.35476 87.682 8.76314 87.8134 9.1076C87.9483 9.44851 88.1419 9.71307 88.394 9.90128C88.6497 10.0859 88.964 10.1783 89.3368 10.1783ZM101.912 12.1598C101.159 12.1598 100.509 12.0249 99.9623 11.755C99.4154 11.4851 98.9946 11.1193 98.6998 10.6577C98.4086 10.1925 98.2631 9.67401 98.2631 9.10227C98.2631 8.67614 98.3483 8.29794 98.5187 7.96768C98.6892 7.63743 98.9271 7.33381 99.2325 7.05682C99.5379 6.77628 99.893 6.49751 100.298 6.22053L102.413 4.83026C102.686 4.65625 102.887 4.47337 103.014 4.2816C103.142 4.08629 103.206 3.875 103.206 3.64773C103.206 3.43111 103.119 3.23047 102.945 3.04581C102.771 2.86115 102.524 2.7706 102.205 2.77415C101.992 2.77415 101.807 2.82209 101.651 2.91797C101.495 3.0103 101.372 3.13281 101.283 3.28551C101.198 3.43466 101.155 3.60156 101.155 3.78622C101.155 4.01349 101.219 4.24432 101.347 4.47869C101.475 4.71307 101.646 4.96165 101.859 5.22443C102.072 5.48366 102.304 5.7642 102.556 6.06605L107.729 12H105.364L101.049 7.19531C100.765 6.87216 100.481 6.5348 100.197 6.18324C99.9161 5.82812 99.6817 5.4517 99.4935 5.05398C99.3053 4.6527 99.2112 4.21768 99.2112 3.74893C99.2112 3.21981 99.3337 2.74396 99.5787 2.32138C99.8273 1.89879 100.175 1.56499 100.623 1.31996C101.07 1.07138 101.592 0.947088 102.189 0.947088C102.771 0.947088 103.274 1.06605 103.696 1.30398C104.122 1.53835 104.449 1.85085 104.676 2.24148C104.907 2.62855 105.023 3.05469 105.023 3.51989C105.023 4.0348 104.895 4.50178 104.639 4.92081C104.387 5.33629 104.032 5.70916 103.574 6.03942L101.347 7.64276C101.045 7.86293 100.822 8.08842 100.676 8.31925C100.534 8.54652 100.463 8.76491 100.463 8.97443C100.463 9.23366 100.527 9.46626 100.655 9.67223C100.783 9.8782 100.964 10.0415 101.198 10.1623C101.432 10.2795 101.708 10.3381 102.024 10.3381C102.407 10.3381 102.785 10.2511 103.158 10.0771C103.535 9.8995 103.876 9.64915 104.181 9.32599C104.49 8.99929 104.737 8.61222 104.921 8.16477C105.106 7.71733 105.198 7.22195 105.198 6.67862H107.079C107.079 7.34624 107.006 7.94815 106.86 8.48438C106.715 9.01705 106.512 9.48224 106.253 9.87997C105.994 10.2741 105.697 10.5973 105.364 10.8494C105.257 10.9169 105.154 10.9808 105.055 11.0412C104.955 11.1016 104.852 11.1655 104.746 11.233C104.341 11.5597 103.888 11.7958 103.387 11.9414C102.89 12.087 102.398 12.1598 101.912 12.1598ZM118.106 4.22834C118.064 3.79865 117.881 3.46484 117.558 3.22692C117.235 2.98899 116.796 2.87003 116.242 2.87003C115.866 2.87003 115.548 2.9233 115.289 3.02983C115.029 3.13281 114.83 3.27663 114.692 3.46129C114.557 3.64595 114.49 3.85547 114.49 4.08984C114.482 4.28516 114.523 4.45561 114.612 4.60121C114.704 4.7468 114.83 4.87287 114.99 4.9794C115.15 5.08239 115.335 5.17294 115.544 5.25107C115.754 5.32564 115.977 5.38956 116.215 5.44283L117.195 5.6772C117.671 5.78374 118.108 5.92578 118.506 6.10334C118.904 6.28089 119.248 6.49929 119.539 6.75852C119.83 7.01776 120.056 7.32315 120.216 7.67472C120.379 8.02628 120.463 8.42933 120.466 8.88388C120.463 9.55149 120.292 10.1303 119.955 10.6204C119.621 11.1069 119.138 11.4851 118.506 11.755C117.877 12.0213 117.119 12.1545 116.231 12.1545C115.351 12.1545 114.584 12.0195 113.93 11.7496C113.28 11.4798 112.773 11.0803 112.407 10.5511C112.045 10.0185 111.855 9.35973 111.837 8.57493H114.069C114.094 8.9407 114.198 9.24609 114.383 9.49112C114.571 9.7326 114.822 9.91548 115.134 10.0398C115.45 10.1605 115.807 10.2209 116.205 10.2209C116.595 10.2209 116.934 10.1641 117.222 10.0504C117.513 9.93679 117.739 9.77876 117.899 9.57635C118.058 9.37393 118.138 9.14134 118.138 8.87855C118.138 8.63352 118.066 8.42756 117.92 8.26065C117.778 8.09375 117.568 7.9517 117.291 7.83452C117.018 7.71733 116.682 7.6108 116.285 7.51491L115.097 7.21662C114.177 6.9929 113.451 6.64311 112.918 6.16726C112.385 5.69141 112.121 5.05043 112.124 4.24432C112.121 3.58381 112.297 3.00675 112.652 2.51314C113.01 2.01953 113.502 1.63423 114.127 1.35724C114.752 1.08026 115.463 0.941761 116.258 0.941761C117.068 0.941761 117.774 1.08026 118.378 1.35724C118.985 1.63423 119.458 2.01953 119.795 2.51314C120.132 3.00675 120.306 3.57848 120.317 4.22834H118.106ZM127.935 4.22834C127.893 3.79865 127.71 3.46484 127.387 3.22692C127.064 2.98899 126.625 2.87003 126.071 2.87003C125.695 2.87003 125.377 2.9233 125.118 3.02983C124.858 3.13281 124.66 3.27663 124.521 3.46129C124.386 3.64595 124.319 3.85547 124.319 4.08984C124.312 4.28516 124.352 4.45561 124.441 4.60121C124.533 4.7468 124.66 4.87287 124.819 4.9794C124.979 5.08239 125.164 5.17294 125.373 5.25107C125.583 5.32564 125.807 5.38956 126.044 5.44283L127.025 5.6772C127.5 5.78374 127.937 5.92578 128.335 6.10334C128.733 6.28089 129.077 6.49929 129.368 6.75852C129.66 7.01776 129.885 7.32315 130.045 7.67472C130.208 8.02628 130.292 8.42933 130.295 8.88388C130.292 9.55149 130.121 10.1303 129.784 10.6204C129.45 11.1069 128.967 11.4851 128.335 11.755C127.706 12.0213 126.948 12.1545 126.06 12.1545C125.18 12.1545 124.413 12.0195 123.759 11.7496C123.109 11.4798 122.602 11.0803 122.236 10.5511C121.874 10.0185 121.684 9.35973 121.666 8.57493H123.898C123.923 8.9407 124.027 9.24609 124.212 9.49112C124.4 9.7326 124.651 9.91548 124.963 10.0398C125.279 10.1605 125.636 10.2209 126.034 10.2209C126.424 10.2209 126.764 10.1641 127.051 10.0504C127.342 9.93679 127.568 9.77876 127.728 9.57635C127.888 9.37393 127.967 9.14134 127.967 8.87855C127.967 8.63352 127.895 8.42756 127.749 8.26065C127.607 8.09375 127.397 7.9517 127.12 7.83452C126.847 7.71733 126.511 7.6108 126.114 7.51491L124.926 7.21662C124.006 6.9929 123.28 6.64311 122.747 6.16726C122.215 5.69141 121.95 5.05043 121.954 4.24432C121.95 3.58381 122.126 3.00675 122.481 2.51314C122.84 2.01953 123.331 1.63423 123.956 1.35724C124.581 1.08026 125.292 0.941761 126.087 0.941761C126.897 0.941761 127.603 1.08026 128.207 1.35724C128.814 1.63423 129.287 2.01953 129.624 2.51314C129.961 3.00675 130.135 3.57848 130.146 4.22834H127.935ZM131.847 12V1.09091H134.153V10.0984H138.83V12H131.847ZM149.747 4.22834C149.704 3.79865 149.521 3.46484 149.198 3.22692C148.875 2.98899 148.437 2.87003 147.883 2.87003C147.506 2.87003 147.188 2.9233 146.929 3.02983C146.67 3.13281 146.471 3.27663 146.333 3.46129C146.198 3.64595 146.13 3.85547 146.13 4.08984C146.123 4.28516 146.164 4.45561 146.253 4.60121C146.345 4.7468 146.471 4.87287 146.631 4.9794C146.791 5.08239 146.975 5.17294 147.185 5.25107C147.394 5.32564 147.618 5.38956 147.856 5.44283L148.836 5.6772C149.312 5.78374 149.749 5.92578 150.146 6.10334C150.544 6.28089 150.889 6.49929 151.18 6.75852C151.471 7.01776 151.697 7.32315 151.856 7.67472C152.02 8.02628 152.103 8.42933 152.107 8.88388C152.103 9.55149 151.933 10.1303 151.595 10.6204C151.262 11.1069 150.779 11.4851 150.146 11.755C149.518 12.0213 148.76 12.1545 147.872 12.1545C146.991 12.1545 146.224 12.0195 145.571 11.7496C144.921 11.4798 144.413 11.0803 144.047 10.5511C143.685 10.0185 143.495 9.35973 143.477 8.57493H145.709C145.734 8.9407 145.839 9.24609 146.024 9.49112C146.212 9.7326 146.462 9.91548 146.775 10.0398C147.091 10.1605 147.448 10.2209 147.845 10.2209C148.236 10.2209 148.575 10.1641 148.863 10.0504C149.154 9.93679 149.379 9.77876 149.539 9.57635C149.699 9.37393 149.779 9.14134 149.779 8.87855C149.779 8.63352 149.706 8.42756 149.561 8.26065C149.419 8.09375 149.209 7.9517 148.932 7.83452C148.659 7.71733 148.323 7.6108 147.925 7.51491L146.737 7.21662C145.818 6.9929 145.091 6.64311 144.559 6.16726C144.026 5.69141 143.762 5.05043 143.765 4.24432C143.762 3.58381 143.937 3.00675 144.292 2.51314C144.651 2.01953 145.143 1.63423 145.768 1.35724C146.393 1.08026 147.103 0.941761 147.899 0.941761C148.708 0.941761 149.415 1.08026 150.019 1.35724C150.626 1.63423 151.098 2.01953 151.436 2.51314C151.773 3.00675 151.947 3.57848 151.958 4.22834H149.747ZM157.344 12.1598C156.503 12.1598 155.778 11.9893 155.171 11.6484C154.567 11.304 154.102 10.8175 153.775 10.1889C153.449 9.55682 153.285 8.8093 153.285 7.94638C153.285 7.10476 153.449 6.36612 153.775 5.73047C154.102 5.09482 154.562 4.59943 155.155 4.24432C155.752 3.8892 156.451 3.71165 157.254 3.71165C157.793 3.71165 158.296 3.79865 158.761 3.97266C159.23 4.14311 159.638 4.40057 159.986 4.74503C160.338 5.08949 160.611 5.52273 160.807 6.04474C161.002 6.56321 161.1 7.17045 161.1 7.86648V8.4897H154.191V7.08345H158.964C158.964 6.75675 158.892 6.46733 158.75 6.2152C158.608 5.96307 158.411 5.76598 158.159 5.62393C157.911 5.47834 157.621 5.40554 157.291 5.40554C156.946 5.40554 156.641 5.48544 156.375 5.64524C156.112 5.80149 155.906 6.01278 155.757 6.27912C155.608 6.5419 155.531 6.83487 155.528 7.15803V8.49503C155.528 8.89986 155.602 9.24964 155.752 9.54439C155.904 9.83913 156.119 10.0664 156.396 10.2262C156.673 10.386 157.002 10.4659 157.381 10.4659C157.634 10.4659 157.864 10.4304 158.074 10.3594C158.283 10.2884 158.463 10.1818 158.612 10.0398C158.761 9.89773 158.875 9.72372 158.953 9.51776L161.052 9.65625C160.945 10.1605 160.727 10.6009 160.396 10.9773C160.07 11.3501 159.647 11.6413 159.129 11.8509C158.614 12.0568 158.019 12.1598 157.344 12.1598ZM166.932 3.81818V5.52273H162.005V3.81818H166.932ZM163.124 1.85795H165.393V9.4858C165.393 9.69531 165.425 9.85866 165.489 9.97585C165.553 10.0895 165.641 10.1694 165.755 10.2156C165.872 10.2617 166.007 10.2848 166.16 10.2848C166.266 10.2848 166.373 10.2759 166.479 10.2582C166.586 10.2369 166.668 10.2209 166.725 10.2102L167.081 11.8988C166.968 11.9343 166.808 11.9751 166.602 12.0213C166.396 12.071 166.146 12.1012 165.851 12.1119C165.304 12.1332 164.825 12.0604 164.413 11.8935C164.004 11.7266 163.687 11.4673 163.459 11.1158C163.232 10.7642 163.12 10.3203 163.124 9.78409V1.85795ZM173.657 8.51634V3.81818H175.926V12H173.748V10.5138H173.663C173.478 10.9933 173.171 11.3786 172.741 11.6697C172.315 11.9609 171.795 12.1065 171.18 12.1065C170.633 12.1065 170.152 11.9822 169.737 11.7337C169.321 11.4851 168.996 11.1317 168.762 10.6737C168.531 10.2156 168.414 9.6669 168.41 9.0277V3.81818H170.68V8.62287C170.683 9.10582 170.813 9.48757 171.068 9.76811C171.324 10.0487 171.667 10.1889 172.097 10.1889C172.37 10.1889 172.626 10.1268 172.864 10.0025C173.101 9.87464 173.293 9.68643 173.439 9.43785C173.588 9.18928 173.661 8.8821 173.657 8.51634ZM177.741 15.0682V3.81818H179.979V5.19247H180.08C180.179 4.9723 180.323 4.74858 180.511 4.52131C180.703 4.29048 180.952 4.09872 181.257 3.94602C181.566 3.78977 181.95 3.71165 182.408 3.71165C183.004 3.71165 183.555 3.8679 184.059 4.1804C184.563 4.48935 184.966 4.95632 185.268 5.58132C185.57 6.20277 185.721 6.98224 185.721 7.91974C185.721 8.83239 185.574 9.60298 185.279 10.2315C184.988 10.8565 184.59 11.3306 184.086 11.6538C183.585 11.9734 183.024 12.1332 182.402 12.1332C181.962 12.1332 181.587 12.0604 181.278 11.9148C180.973 11.7692 180.723 11.5863 180.527 11.3661C180.332 11.1424 180.183 10.9169 180.08 10.6896H180.011V15.0682H177.741ZM179.963 7.90909C179.963 8.3956 180.03 8.81996 180.165 9.18217C180.3 9.54439 180.495 9.8267 180.751 10.0291C181.007 10.228 181.317 10.3274 181.683 10.3274C182.053 10.3274 182.365 10.2262 182.621 10.0238C182.876 9.81783 183.07 9.53374 183.201 9.17152C183.336 8.80575 183.404 8.38494 183.404 7.90909C183.404 7.43679 183.338 7.02131 183.207 6.66264C183.075 6.30398 182.882 6.02344 182.626 5.82102C182.37 5.61861 182.056 5.5174 181.683 5.5174C181.314 5.5174 181.001 5.61506 180.746 5.81037C180.494 6.00568 180.3 6.28267 180.165 6.64133C180.03 7 179.963 7.42259 179.963 7.90909Z" fill="black"/>
</svg>
