<svg width="79" height="82" viewBox="0 0 79 82" fill="none" xmlns="http://www.w3.org/2000/svg">
<g clip-path="url(#clip0_62_2253)">
<path d="M19.3093 65.8589C18.3305 65.86 17.3518 65.8399 16.3738 65.7985L15.9165 65.6906C14.7348 65.4047 13.6582 64.7696 12.817 63.8619C11.9758 62.9543 11.406 61.8131 11.1765 60.5764L11.1016 60.1793C11.0808 59.7219 11.0601 58.4271 11.0601 57.3007V19.1362C11.0623 18.5924 11.2716 18.0717 11.6424 17.6876C12.0132 17.3035 12.5154 17.0873 13.0392 17.0862H57.2543C57.7777 17.0873 58.2794 17.3037 58.6496 17.6879C59.0197 18.0721 59.2282 18.5928 59.2293 19.1362V25.735H65.8445C66.3996 25.7373 66.9313 25.9672 67.3239 26.3746C67.7164 26.7821 67.9379 27.334 67.9401 27.9102V58.9493C67.9401 60.7807 67.2392 62.5371 65.9915 63.8321C64.7439 65.1271 63.0518 65.8546 61.2874 65.8546L19.3093 65.8589ZM19.3093 61.0727H54.9508C54.7383 60.388 54.6302 59.673 54.6306 58.9537V49.5711C54.6227 49.4145 54.6185 49.2576 54.6182 49.1007V21.8681H15.6712V57.3007C15.6712 58.2416 15.6836 59.1565 15.6961 59.6485L15.7044 59.683C15.7665 60.0078 15.917 60.3073 16.1381 60.546C16.3591 60.7846 16.6416 60.9525 16.9518 61.0295L16.9934 61.0382C17.5464 61.0554 18.4819 61.0727 19.3093 61.0727ZM49.5206 29.4121H20.5816V34.1983H49.5206V29.4121ZM32.889 39.6966H20.5816V54.94H32.889V39.6966ZM49.5289 39.8088H37.5583V44.595H49.5247L49.5289 39.8088ZM49.5289 50.2099H37.5583V54.9918H49.5247L49.5289 50.2099ZM59.2417 30.5169V58.9537C59.2417 59.5168 59.4573 60.0569 59.8409 60.4551C60.2245 60.8533 60.7449 61.077 61.2874 61.077C61.83 61.077 62.3503 60.8533 62.7339 60.4551C63.1176 60.0569 63.3331 59.5168 63.3331 58.9537V30.5126L59.2417 30.5169Z" fill="#DC4618"/>
</g>
<defs>
<clipPath id="clip0_62_2253">
<rect width="79" height="82" rx="7" fill="white"/>
</clipPath>
</defs>
</svg>
