<svg width="58" height="51" viewBox="0 0 58 51" fill="none" xmlns="http://www.w3.org/2000/svg">
<path d="M57.8629 22.4493L49.9538 1.58564C49.779 1.12422 49.4437 0.722817 48.9951 0.438252C48.5466 0.153687 48.0076 0.000369271 47.4545 0H10.5455C9.99236 0.000369271 9.45341 0.153687 9.00488 0.438252C8.55635 0.722817 8.22096 1.12422 8.04618 1.58564L0.137091 22.4493C0.055254 22.6872 0.00916571 22.9334 0 23.1818V48.6818C0 49.2966 0.277759 49.8863 0.772173 50.321C1.26659 50.7558 1.93716 51 2.63636 51H55.3636C56.0628 51 56.7334 50.7558 57.2278 50.321C57.7222 49.8863 58 49.2966 58 48.6818C58 48.45 57.9789 22.8874 58 23.1192C57.9926 22.8911 57.9463 22.6653 57.8629 22.4493ZM10.7327 9.15353C11.7642 6.43446 14.3694 4.63636 17.2775 4.63636H40.721C43.6299 4.63636 46.2356 6.43534 47.2666 9.15538L49.3321 14.605C50.4781 17.6284 48.2445 20.8636 45.0112 20.8636V20.8636C43.8877 20.8636 42.8027 20.4543 41.9591 19.7123L30.8639 9.95195C30.3695 9.51736 29.6991 9.27322 29 9.27322C28.3009 9.27322 27.6305 9.51736 27.1361 9.95195L16.0352 19.7131C15.1919 20.4546 14.1073 20.8636 12.9844 20.8636V20.8636C9.75111 20.8636 7.51786 17.6279 8.66467 14.6048L10.7327 9.15353ZM29 46.3636C27.544 46.3636 26.3636 45.1833 26.3636 43.7273V37.4091C26.3636 35.9531 27.544 34.7727 29 34.7727V34.7727C30.456 34.7727 31.6364 35.9531 31.6364 37.4091V43.7273C31.6364 45.1833 30.456 46.3636 29 46.3636V46.3636ZM52.7273 39.3636C52.7273 43.2296 49.5933 46.3636 45.7273 46.3636H43.9091C40.0431 46.3636 36.9091 43.2296 36.9091 39.3636V32.4545C36.9091 31.8397 36.6313 31.2501 36.1369 30.8153C35.6425 30.3806 34.9719 30.1364 34.2727 30.1364H23.7273C23.0281 30.1364 22.3575 30.3806 21.8631 30.8153C21.3687 31.2501 21.0909 31.8397 21.0909 32.4545V39.3636C21.0909 43.2296 17.9569 46.3636 14.0909 46.3636H12.2727C8.40674 46.3636 5.27273 43.2296 5.27273 39.3636V32.5C5.27273 28.634 8.40673 25.5 12.2727 25.5H15.8182C16.5173 25.4999 17.1878 25.2555 17.6821 24.8208L24.3776 18.9333C27.0209 16.609 30.9791 16.609 33.6224 18.9333L40.3179 24.8208C40.8122 25.2555 41.4827 25.4999 42.1818 25.5H45.7273C49.5933 25.5 52.7273 28.634 52.7273 32.5V39.3636ZM31.6364 23.1818C31.6364 23.6403 31.4817 24.0885 31.1921 24.4697C30.9024 24.851 30.4906 25.1481 30.0089 25.3235C29.5272 25.499 28.9971 25.5449 28.4857 25.4555C27.9743 25.366 27.5045 25.1452 27.1358 24.821C26.7671 24.4968 26.516 24.0838 26.4143 23.6341C26.3126 23.1844 26.3648 22.7183 26.5643 22.2947C26.7639 21.8711 27.1018 21.509 27.5353 21.2543C27.9689 20.9996 28.4786 20.8636 29 20.8636C29.6992 20.8636 30.3698 21.1079 30.8642 21.5426C31.3586 21.9774 31.6364 22.567 31.6364 23.1818ZM7.90909 32.4545C7.90909 31.1742 8.94698 30.1364 10.2273 30.1364H16.1364C17.4167 30.1364 18.4545 31.1742 18.4545 32.4545V32.4545C18.4545 33.7348 17.4167 34.7727 16.1364 34.7727H10.2273C8.94698 34.7727 7.90909 33.7348 7.90909 32.4545V32.4545ZM39.5455 32.4545C39.5455 31.1742 40.5833 30.1364 41.8636 30.1364H47.7727C49.053 30.1364 50.0909 31.1742 50.0909 32.4545V32.4545C50.0909 33.7348 49.053 34.7727 47.7727 34.7727H41.8636C40.5833 34.7727 39.5455 33.7348 39.5455 32.4545V32.4545ZM7.90909 39.4091C7.90909 38.1288 8.94698 37.0909 10.2273 37.0909H16.1364C17.4167 37.0909 18.4545 38.1288 18.4545 39.4091V39.4091C18.4545 40.6894 17.4167 41.7273 16.1364 41.7273H10.2273C8.94698 41.7273 7.90909 40.6894 7.90909 39.4091V39.4091ZM39.5455 39.4091C39.5455 38.1288 40.5833 37.0909 41.8636 37.0909H47.7727C49.053 37.0909 50.0909 38.1288 50.0909 39.4091V39.4091C50.0909 40.6894 49.053 41.7273 47.7727 41.7273H41.8636C40.5833 41.7273 39.5455 40.6894 39.5455 39.4091V39.4091Z" fill="#DC4618"/>
</svg>
