<svg class="svg-icon" style="width: 1em;height: 1em;vertical-align: middle;fill: currentColor;overflow: hidden;" viewBox="0 0 1024 1024" version="1.1" xmlns="http://www.w3.org/2000/svg"><path d="M493.572 922.829H277.5c-54.922 0-99.726-44.805-99.726-99.727V168.378c0-54.921 44.804-99.726 99.726-99.726h389.51c54.922 0 99.726 44.805 99.726 99.726v291.23c0 13.73-11.562 25.292-25.293 25.292s-25.292-11.562-25.292-25.292v-291.23c0-26.738-22.403-49.14-49.14-49.14H277.498c-26.738 0-49.14 22.402-49.14 49.14v654.724c0 26.739 22.402 49.14 49.14 49.14h216.073c13.73 0 25.293 11.563 25.293 25.294s-10.84 25.293-25.293 25.293z"  /><path d="M671.345 979.918c-7.226 0-13.73-3.613-18.066-10.117L626.54 928.61c-19.512-11.563-83.828-55.645-101.895-141.64-2.89-14.453-5.058-29.63-5.058-44.805 0-115.624 94.667-210.292 211.015-210.292s211.015 94.668 211.015 211.015c0 114.902-92.5 208.124-206.68 211.015l-54.921 24.57c-2.168 1.445-5.781 1.445-8.672 1.445z m59.258-404.686c-92.5 0-167.656 75.156-167.656 166.933 0 12.285 1.445 24.57 3.613 35.41 16.621 79.492 83.828 114.902 84.55 115.625 3.614 1.445 6.505 4.336 7.95 7.226l19.512 30.352 42.636-18.79c2.89-1.445 5.781-2.167 8.672-2.167 92.5 0 167.656-75.156 167.656-167.656s-74.434-166.933-166.933-166.933z"  /><path d="M609.92 737.107a27.46 27.46 0 1 0 54.921 0 27.46 27.46 0 1 0-54.921 0zM706.756 737.107a27.46 27.46 0 1 0 54.92 0 27.46 27.46 0 1 0-54.92 0zM802.868 737.107a27.46 27.46 0 1 0 54.922 0 27.46 27.46 0 1 0-54.922 0zM451.658 764.567H223.3c-13.73 0-25.293-11.562-25.293-25.292s11.563-25.293 25.293-25.293h228.358c13.73 0 25.293 11.562 25.293 25.293s-11.562 25.292-25.293 25.292z"  /></svg>