<svg width="239" height="16" viewBox="0 0 239 16" fill="none" xmlns="http://www.w3.org/2000/svg">
<path d="M3.40376 12L0.282315 1.09091H2.80185L4.6076 8.67081H4.69815L6.69034 1.09091H8.84766L10.8345 8.68679H10.9304L12.7362 1.09091H15.2557L12.1342 12H9.88636L7.80895 4.86754H7.72372L5.65163 12H3.40376ZM18.7167 7.26989V12H16.4475V1.09091H18.6528V5.26172H18.7487C18.9333 4.77876 19.2316 4.40057 19.6436 4.12713C20.0555 3.85014 20.5722 3.71165 21.1936 3.71165C21.7618 3.71165 22.2572 3.83594 22.6798 4.08452C23.1059 4.32955 23.4362 4.68288 23.6705 5.14453C23.9085 5.60263 24.0257 6.15128 24.0221 6.79048V12H21.7529V7.19531C21.7565 6.69105 21.6286 6.29865 21.3694 6.01811C21.1137 5.73757 20.7551 5.5973 20.2934 5.5973C19.9845 5.5973 19.711 5.663 19.4731 5.79439C19.2387 5.92578 19.0541 6.11754 18.9191 6.36967C18.7877 6.61825 18.7203 6.91832 18.7167 7.26989ZM28.141 12.1545C27.619 12.1545 27.1538 12.0639 26.7454 11.8828C26.337 11.6982 26.0138 11.4265 25.7759 11.0678C25.5415 10.7056 25.4244 10.2546 25.4244 9.71484C25.4244 9.2603 25.5078 8.87855 25.6747 8.5696C25.8416 8.26065 26.0689 8.01207 26.3565 7.82386C26.6442 7.63565 26.9709 7.49361 27.3366 7.39773C27.706 7.30185 28.093 7.23438 28.4979 7.19531C28.9737 7.1456 29.3572 7.09943 29.6484 7.05682C29.9396 7.01065 30.1509 6.94318 30.2823 6.8544C30.4137 6.76562 30.4794 6.63423 30.4794 6.46023V6.42827C30.4794 6.09091 30.3729 5.8299 30.1598 5.64524C29.9503 5.46058 29.652 5.36825 29.2649 5.36825C28.8565 5.36825 28.5316 5.45881 28.2901 5.63991C28.0487 5.81747 27.8888 6.04119 27.8107 6.31108L25.712 6.14062C25.8185 5.64347 26.0281 5.21378 26.3406 4.85156C26.6531 4.4858 27.0561 4.20526 27.5497 4.00994C28.0469 3.81108 28.6222 3.71165 29.2756 3.71165C29.7301 3.71165 30.1651 3.76491 30.5806 3.87145C30.9996 3.97798 31.3707 4.14311 31.6939 4.36683C32.0206 4.59055 32.2781 4.8782 32.4663 5.22976C32.6545 5.57777 32.7486 5.99503 32.7486 6.48153V12H30.5966V10.8654H30.5327C30.4013 11.1211 30.2255 11.3466 30.0053 11.5419C29.7852 11.7337 29.5206 11.8846 29.2116 11.9947C28.9027 12.1012 28.5458 12.1545 28.141 12.1545ZM28.7908 10.5884C29.1246 10.5884 29.4194 10.5227 29.6751 10.3913C29.9308 10.2564 30.1314 10.0753 30.277 9.84801C30.4226 9.62074 30.4954 9.36328 30.4954 9.07564V8.20739C30.4244 8.25355 30.3267 8.29616 30.2024 8.33523C30.0817 8.37074 29.945 8.40447 29.7923 8.43643C29.6396 8.46484 29.4869 8.49148 29.3342 8.51634C29.1815 8.53764 29.043 8.55717 28.9187 8.57493C28.6523 8.61399 28.4197 8.67614 28.2209 8.76136C28.022 8.84659 27.8675 8.962 27.7575 9.1076C27.6474 9.24964 27.5923 9.4272 27.5923 9.64027C27.5923 9.94922 27.7042 10.1854 27.9279 10.3487C28.1552 10.5085 28.4428 10.5884 28.7908 10.5884ZM38.861 3.81818V5.52273H33.9338V3.81818H38.861ZM35.0524 1.85795H37.3216V9.4858C37.3216 9.69531 37.3535 9.85866 37.4174 9.97585C37.4814 10.0895 37.5701 10.1694 37.6838 10.2156C37.801 10.2617 37.9359 10.2848 38.0886 10.2848C38.1951 10.2848 38.3017 10.2759 38.4082 10.2582C38.5147 10.2369 38.5964 10.2209 38.6532 10.2102L39.0101 11.8988C38.8965 11.9343 38.7367 11.9751 38.5307 12.0213C38.3248 12.071 38.0744 12.1012 37.7797 12.1119C37.2328 12.1332 36.7534 12.0604 36.3414 11.8935C35.9331 11.7266 35.6152 11.4673 35.388 11.1158C35.1607 10.7642 35.0488 10.3203 35.0524 9.78409V1.85795ZM47.0441 6.15128L44.9667 6.27912C44.9312 6.10156 44.8548 5.94176 44.7377 5.79972C44.6205 5.65412 44.466 5.53871 44.2742 5.45348C44.086 5.3647 43.8605 5.32031 43.5977 5.32031C43.2462 5.32031 42.9497 5.39489 42.7082 5.54403C42.4667 5.68963 42.346 5.88494 42.346 6.12997C42.346 6.32528 42.4241 6.49041 42.5803 6.62536C42.7366 6.7603 43.0047 6.86861 43.3847 6.95028L44.8655 7.24858C45.661 7.41193 46.254 7.67472 46.6446 8.03693C47.0352 8.39915 47.2306 8.875 47.2306 9.46449C47.2306 10.0007 47.0725 10.4712 46.7565 10.8761C46.444 11.2809 46.0143 11.5969 45.4674 11.8242C44.9241 12.0479 44.2973 12.1598 43.5871 12.1598C42.504 12.1598 41.6411 11.9343 40.9983 11.4833C40.3591 11.0288 39.9845 10.4109 39.8744 9.62962L42.1063 9.51243C42.1737 9.84268 42.3371 10.0948 42.5963 10.2688C42.8556 10.4393 43.1876 10.5245 43.5924 10.5245C43.9901 10.5245 44.3097 10.4482 44.5512 10.2955C44.7963 10.1392 44.9205 9.93857 44.9241 9.69354C44.9205 9.48757 44.8335 9.31889 44.6631 9.1875C44.4926 9.05256 44.2298 8.94957 43.8747 8.87855L42.4578 8.59624C41.6588 8.43643 41.064 8.15945 40.6734 7.76527C40.2863 7.37109 40.0928 6.86861 40.0928 6.25781C40.0928 5.73224 40.2348 5.27947 40.5189 4.8995C40.8066 4.51953 41.2096 4.22656 41.7281 4.0206C42.2501 3.81463 42.8609 3.71165 43.5605 3.71165C44.5938 3.71165 45.407 3.93004 46.0001 4.36683C46.5967 4.80362 46.9447 5.39844 47.0441 6.15128ZM50.9925 12.1545C50.4705 12.1545 50.0053 12.0639 49.5969 11.8828C49.1886 11.6982 48.8654 11.4265 48.6275 11.0678C48.3931 10.7056 48.2759 10.2546 48.2759 9.71484C48.2759 9.2603 48.3594 8.87855 48.5263 8.5696C48.6932 8.26065 48.9205 8.01207 49.2081 7.82386C49.4957 7.63565 49.8224 7.49361 50.1882 7.39773C50.5575 7.30185 50.9446 7.23438 51.3494 7.19531C51.8253 7.1456 52.2088 7.09943 52.5 7.05682C52.7912 7.01065 53.0025 6.94318 53.1339 6.8544C53.2653 6.76562 53.331 6.63423 53.331 6.46023V6.42827C53.331 6.09091 53.2244 5.8299 53.0114 5.64524C52.8018 5.46058 52.5036 5.36825 52.1165 5.36825C51.7081 5.36825 51.3832 5.45881 51.1417 5.63991C50.9002 5.81747 50.7404 6.04119 50.6623 6.31108L48.5636 6.14062C48.6701 5.64347 48.8796 5.21378 49.1921 4.85156C49.5046 4.4858 49.9077 4.20526 50.4013 4.00994C50.8984 3.81108 51.4737 3.71165 52.1271 3.71165C52.5817 3.71165 53.0167 3.76491 53.4322 3.87145C53.8512 3.97798 54.2223 4.14311 54.5455 4.36683C54.8722 4.59055 55.1296 4.8782 55.3178 5.22976C55.506 5.57777 55.6001 5.99503 55.6001 6.48153V12H53.4482V10.8654H53.3842C53.2528 11.1211 53.0771 11.3466 52.8569 11.5419C52.6367 11.7337 52.3722 11.8846 52.0632 11.9947C51.7543 12.1012 51.3974 12.1545 50.9925 12.1545ZM51.6424 10.5884C51.9762 10.5884 52.271 10.5227 52.5266 10.3913C52.7823 10.2564 52.983 10.0753 53.1286 9.84801C53.2741 9.62074 53.3469 9.36328 53.3469 9.07564V8.20739C53.2759 8.25355 53.1783 8.29616 53.054 8.33523C52.9332 8.37074 52.7965 8.40447 52.6438 8.43643C52.4911 8.46484 52.3384 8.49148 52.1857 8.51634C52.033 8.53764 51.8945 8.55717 51.7702 8.57493C51.5039 8.61399 51.2713 8.67614 51.0724 8.76136C50.8736 8.84659 50.7191 8.962 50.609 9.1076C50.4989 9.24964 50.4439 9.4272 50.4439 9.64027C50.4439 9.94922 50.5558 10.1854 50.7795 10.3487C51.0067 10.5085 51.2944 10.5884 51.6424 10.5884ZM57.3606 15.0682V3.81818H59.5978V5.19247H59.699C59.7985 4.9723 59.9423 4.74858 60.1305 4.52131C60.3223 4.29048 60.5708 4.09872 60.8762 3.94602C61.1852 3.78977 61.5687 3.71165 62.0268 3.71165C62.6234 3.71165 63.1738 3.8679 63.6781 4.1804C64.1824 4.48935 64.5854 4.95632 64.8873 5.58132C65.1891 6.20277 65.34 6.98224 65.34 7.91974C65.34 8.83239 65.1926 9.60298 64.8979 10.2315C64.6067 10.8565 64.209 11.3306 63.7047 11.6538C63.204 11.9734 62.6429 12.1332 62.0215 12.1332C61.5811 12.1332 61.2065 12.0604 60.8975 11.9148C60.5922 11.7692 60.3418 11.5863 60.1465 11.3661C59.9512 11.1424 59.802 10.9169 59.699 10.6896H59.6298V15.0682H57.3606ZM59.5819 7.90909C59.5819 8.3956 59.6493 8.81996 59.7843 9.18217C59.9192 9.54439 60.1145 9.8267 60.3702 10.0291C60.6259 10.228 60.9366 10.3274 61.3024 10.3274C61.6717 10.3274 61.9842 10.2262 62.2399 10.0238C62.4956 9.81783 62.6891 9.53374 62.8205 9.17152C62.9554 8.80575 63.0229 8.38494 63.0229 7.90909C63.0229 7.43679 62.9572 7.02131 62.8258 6.66264C62.6944 6.30398 62.5009 6.02344 62.2452 5.82102C61.9895 5.61861 61.6752 5.5174 61.3024 5.5174C60.9331 5.5174 60.6206 5.61506 60.3649 5.81037C60.1127 6.00568 59.9192 6.28267 59.7843 6.64133C59.6493 7 59.5819 7.42259 59.5819 7.90909ZM66.8528 15.0682V3.81818H69.09V5.19247H69.1912C69.2907 4.9723 69.4345 4.74858 69.6227 4.52131C69.8145 4.29048 70.063 4.09872 70.3684 3.94602C70.6774 3.78977 71.0609 3.71165 71.519 3.71165C72.1156 3.71165 72.666 3.8679 73.1703 4.1804C73.6745 4.48935 74.0776 4.95632 74.3794 5.58132C74.6813 6.20277 74.8322 6.98224 74.8322 7.91974C74.8322 8.83239 74.6848 9.60298 74.3901 10.2315C74.0989 10.8565 73.7012 11.3306 73.1969 11.6538C72.6962 11.9734 72.1351 12.1332 71.5137 12.1332C71.0733 12.1332 70.6987 12.0604 70.3897 11.9148C70.0843 11.7692 69.834 11.5863 69.6387 11.3661C69.4434 11.1424 69.2942 10.9169 69.1912 10.6896H69.122V15.0682H66.8528ZM69.074 7.90909C69.074 8.3956 69.1415 8.81996 69.2765 9.18217C69.4114 9.54439 69.6067 9.8267 69.8624 10.0291C70.1181 10.228 70.4288 10.3274 70.7946 10.3274C71.1639 10.3274 71.4764 10.2262 71.7321 10.0238C71.9877 9.81783 72.1813 9.53374 72.3127 9.17152C72.4476 8.80575 72.5151 8.38494 72.5151 7.90909C72.5151 7.43679 72.4494 7.02131 72.318 6.66264C72.1866 6.30398 71.9931 6.02344 71.7374 5.82102C71.4817 5.61861 71.1674 5.5174 70.7946 5.5174C70.4252 5.5174 70.1127 5.61506 69.8571 5.81037C69.6049 6.00568 69.4114 6.28267 69.2765 6.64133C69.1415 7 69.074 7.42259 69.074 7.90909ZM83.1618 12.1598C82.409 12.1598 81.7591 12.0249 81.2123 11.755C80.6654 11.4851 80.2446 11.1193 79.9498 10.6577C79.6586 10.1925 79.5131 9.67401 79.5131 9.10227C79.5131 8.67614 79.5983 8.29794 79.7687 7.96768C79.9392 7.63743 80.1771 7.33381 80.4825 7.05682C80.7879 6.77628 81.143 6.49751 81.5479 6.22053L83.6626 4.83026C83.936 4.65625 84.1366 4.47337 84.2645 4.2816C84.3923 4.08629 84.4562 3.875 84.4562 3.64773C84.4562 3.43111 84.3692 3.23047 84.1952 3.04581C84.0212 2.86115 83.7744 2.7706 83.4548 2.77415C83.2417 2.77415 83.0571 2.82209 82.9008 2.91797C82.7446 3.0103 82.6221 3.13281 82.5333 3.28551C82.4481 3.43466 82.4055 3.60156 82.4055 3.78622C82.4055 4.01349 82.4694 4.24432 82.5972 4.47869C82.7251 4.71307 82.8955 4.96165 83.1086 5.22443C83.3216 5.48366 83.5542 5.7642 83.8064 6.06605L88.9786 12H86.6135L82.2989 7.19531C82.0148 6.87216 81.7307 6.5348 81.4466 6.18324C81.1661 5.82812 80.9317 5.4517 80.7435 5.05398C80.5553 4.6527 80.4612 4.21768 80.4612 3.74893C80.4612 3.21981 80.5837 2.74396 80.8287 2.32138C81.0773 1.89879 81.4253 1.56499 81.8728 1.31996C82.3202 1.07138 82.8422 0.947088 83.4388 0.947088C84.0212 0.947088 84.5237 1.06605 84.9463 1.30398C85.3724 1.53835 85.6991 1.85085 85.9264 2.24148C86.1572 2.62855 86.2726 3.05469 86.2726 3.51989C86.2726 4.0348 86.1448 4.50178 85.8891 4.92081C85.637 5.33629 85.2819 5.70916 84.8238 6.03942L82.5972 7.64276C82.2954 7.86293 82.0716 8.08842 81.926 8.31925C81.784 8.54652 81.713 8.76491 81.713 8.97443C81.713 9.23366 81.7769 9.46626 81.9047 9.67223C82.0326 9.8782 82.2137 10.0415 82.4481 10.1623C82.6824 10.2795 82.9577 10.3381 83.2737 10.3381C83.6572 10.3381 84.0354 10.2511 84.4083 10.0771C84.7847 9.8995 85.1256 9.64915 85.431 9.32599C85.74 8.99929 85.9868 8.61222 86.1714 8.16477C86.3561 7.71733 86.4484 7.22195 86.4484 6.67862H88.3287C88.3287 7.34624 88.2559 7.94815 88.1104 8.48438C87.9648 9.01705 87.7623 9.48224 87.5031 9.87997C87.2439 10.2741 86.9474 10.5973 86.6135 10.8494C86.507 10.9169 86.404 10.9808 86.3046 11.0412C86.2052 11.1016 86.1022 11.1655 85.9957 11.233C85.5908 11.5597 85.1381 11.7958 84.6373 11.9414C84.1402 12.087 83.6483 12.1598 83.1618 12.1598ZM93.4384 12V1.09091H97.8063C98.6088 1.09091 99.2782 1.20987 99.8145 1.4478C100.351 1.68572 100.754 2.01598 101.024 2.43857C101.294 2.8576 101.428 3.34055 101.428 3.88743C101.428 4.31357 101.343 4.68821 101.173 5.01136C101.002 5.33097 100.768 5.59375 100.47 5.79972C100.175 6.00213 99.8375 6.14595 99.4576 6.23118V6.33771C99.873 6.35547 100.262 6.47266 100.624 6.68928C100.99 6.90589 101.286 7.20952 101.514 7.60014C101.741 7.98722 101.855 8.44886 101.855 8.98509C101.855 9.56392 101.711 10.0806 101.423 10.5352C101.139 10.9862 100.718 11.343 100.161 11.6058C99.6032 11.8686 98.916 12 98.0993 12H93.4384ZM95.7449 10.1143H97.6252C98.2679 10.1143 98.7367 9.99183 99.0314 9.7468C99.3262 9.49822 99.4735 9.16797 99.4735 8.75604C99.4735 8.45419 99.4007 8.18786 99.2551 7.95703C99.1096 7.72621 98.9018 7.5451 98.6319 7.41371C98.3656 7.28232 98.0478 7.21662 97.6784 7.21662H95.7449V10.1143ZM95.7449 5.65589H97.4547C97.7708 5.65589 98.0513 5.60085 98.2963 5.49077C98.5449 5.37713 98.7402 5.21733 98.8823 5.01136C99.0279 4.8054 99.1007 4.55859 99.1007 4.27095C99.1007 3.87678 98.9604 3.55895 98.6799 3.31747C98.4029 3.07599 98.0087 2.95526 97.4973 2.95526H95.7449V5.65589ZM108.56 8.51634V3.81818H110.829V12H108.65V10.5138H108.565C108.38 10.9933 108.073 11.3786 107.643 11.6697C107.217 11.9609 106.697 12.1065 106.083 12.1065C105.536 12.1065 105.055 11.9822 104.639 11.7337C104.224 11.4851 103.899 11.1317 103.664 10.6737C103.434 10.2156 103.316 9.6669 103.313 9.0277V3.81818H105.582V8.62287C105.585 9.10582 105.715 9.48757 105.971 9.76811C106.226 10.0487 106.569 10.1889 106.999 10.1889C107.272 10.1889 107.528 10.1268 107.766 10.0025C108.004 9.87464 108.196 9.68643 108.341 9.43785C108.49 9.18928 108.563 8.8821 108.56 8.51634ZM114.913 1.09091V12H112.644V1.09091H114.913ZM118.787 9.6456L118.792 6.92365H119.122L121.743 3.81818H124.348L120.827 7.9304H120.289L118.787 9.6456ZM116.731 12V1.09091H119V12H116.731ZM121.844 12L119.437 8.43643L120.949 6.8331L124.502 12H121.844ZM134.893 4.22834C134.851 3.79865 134.668 3.46484 134.345 3.22692C134.022 2.98899 133.583 2.87003 133.029 2.87003C132.653 2.87003 132.335 2.9233 132.076 3.02983C131.816 3.13281 131.618 3.27663 131.479 3.46129C131.344 3.64595 131.277 3.85547 131.277 4.08984C131.27 4.28516 131.31 4.45561 131.399 4.60121C131.491 4.7468 131.618 4.87287 131.777 4.9794C131.937 5.08239 132.122 5.17294 132.331 5.25107C132.541 5.32564 132.765 5.38956 133.002 5.44283L133.983 5.6772C134.458 5.78374 134.895 5.92578 135.293 6.10334C135.691 6.28089 136.035 6.49929 136.326 6.75852C136.618 7.01776 136.843 7.32315 137.003 7.67472C137.166 8.02628 137.25 8.42933 137.253 8.88388C137.25 9.55149 137.079 10.1303 136.742 10.6204C136.408 11.1069 135.925 11.4851 135.293 11.755C134.664 12.0213 133.906 12.1545 133.018 12.1545C132.138 12.1545 131.371 12.0195 130.717 11.7496C130.067 11.4798 129.56 11.0803 129.194 10.5511C128.832 10.0185 128.642 9.35973 128.624 8.57493H130.856C130.881 8.9407 130.985 9.24609 131.17 9.49112C131.358 9.7326 131.609 9.91548 131.921 10.0398C132.237 10.1605 132.594 10.2209 132.992 10.2209C133.382 10.2209 133.722 10.1641 134.009 10.0504C134.3 9.93679 134.526 9.77876 134.686 9.57635C134.846 9.37393 134.925 9.14134 134.925 8.87855C134.925 8.63352 134.853 8.42756 134.707 8.26065C134.565 8.09375 134.355 7.9517 134.078 7.83452C133.805 7.71733 133.469 7.6108 133.072 7.51491L131.884 7.21662C130.964 6.9929 130.238 6.64311 129.705 6.16726C129.173 5.69141 128.908 5.05043 128.912 4.24432C128.908 3.58381 129.084 3.00675 129.439 2.51314C129.798 2.01953 130.289 1.63423 130.914 1.35724C131.539 1.08026 132.25 0.941761 133.045 0.941761C133.855 0.941761 134.561 1.08026 135.165 1.35724C135.772 1.63423 136.245 2.01953 136.582 2.51314C136.919 3.00675 137.093 3.57848 137.104 4.22834H134.893ZM138.805 1.09091H141.649L144.653 8.42045H144.781L147.785 1.09091H150.63V12H148.393V4.8995H148.302L145.479 11.9467H143.956L141.132 4.87287H141.042V12H138.805V1.09091ZM158.448 4.22834C158.406 3.79865 158.223 3.46484 157.9 3.22692C157.576 2.98899 157.138 2.87003 156.584 2.87003C156.207 2.87003 155.89 2.9233 155.63 3.02983C155.371 3.13281 155.172 3.27663 155.034 3.46129C154.899 3.64595 154.831 3.85547 154.831 4.08984C154.824 4.28516 154.865 4.45561 154.954 4.60121C155.046 4.7468 155.172 4.87287 155.332 4.9794C155.492 5.08239 155.676 5.17294 155.886 5.25107C156.096 5.32564 156.319 5.38956 156.557 5.44283L157.537 5.6772C158.013 5.78374 158.45 5.92578 158.848 6.10334C159.245 6.28089 159.59 6.49929 159.881 6.75852C160.172 7.01776 160.398 7.32315 160.558 7.67472C160.721 8.02628 160.804 8.42933 160.808 8.88388C160.804 9.55149 160.634 10.1303 160.297 10.6204C159.963 11.1069 159.48 11.4851 158.848 11.755C158.219 12.0213 157.461 12.1545 156.573 12.1545C155.692 12.1545 154.925 12.0195 154.272 11.7496C153.622 11.4798 153.114 11.0803 152.749 10.5511C152.386 10.0185 152.196 9.35973 152.179 8.57493H154.411C154.435 8.9407 154.54 9.24609 154.725 9.49112C154.913 9.7326 155.163 9.91548 155.476 10.0398C155.792 10.1605 156.149 10.2209 156.547 10.2209C156.937 10.2209 157.276 10.1641 157.564 10.0504C157.855 9.93679 158.081 9.77876 158.24 9.57635C158.4 9.37393 158.48 9.14134 158.48 8.87855C158.48 8.63352 158.407 8.42756 158.262 8.26065C158.12 8.09375 157.91 7.9517 157.633 7.83452C157.36 7.71733 157.024 7.6108 156.626 7.51491L155.439 7.21662C154.519 6.9929 153.793 6.64311 153.26 6.16726C152.727 5.69141 152.463 5.05043 152.466 4.24432C152.463 3.58381 152.638 3.00675 152.994 2.51314C153.352 2.01953 153.844 1.63423 154.469 1.35724C155.094 1.08026 155.804 0.941761 156.6 0.941761C157.409 0.941761 158.116 1.08026 158.72 1.35724C159.327 1.63423 159.799 2.01953 160.137 2.51314C160.474 3.00675 160.648 3.57848 160.659 4.22834H158.448ZM165.831 1.09091H168.675L171.68 8.42045H171.808L174.812 1.09091H177.656V12H175.419V4.8995H175.328L172.505 11.9467H170.982L168.159 4.87287H168.068V12H165.831V1.09091ZM181.847 12.1545C181.325 12.1545 180.86 12.0639 180.451 11.8828C180.043 11.6982 179.72 11.4265 179.482 11.0678C179.248 10.7056 179.13 10.2546 179.13 9.71484C179.13 9.2603 179.214 8.87855 179.381 8.5696C179.548 8.26065 179.775 8.01207 180.063 7.82386C180.35 7.63565 180.677 7.49361 181.043 7.39773C181.412 7.30185 181.799 7.23438 182.204 7.19531C182.68 7.1456 183.063 7.09943 183.354 7.05682C183.646 7.01065 183.857 6.94318 183.988 6.8544C184.12 6.76562 184.185 6.63423 184.185 6.46023V6.42827C184.185 6.09091 184.079 5.8299 183.866 5.64524C183.656 5.46058 183.358 5.36825 182.971 5.36825C182.563 5.36825 182.238 5.45881 181.996 5.63991C181.755 5.81747 181.595 6.04119 181.517 6.31108L179.418 6.14062C179.525 5.64347 179.734 5.21378 180.047 4.85156C180.359 4.4858 180.762 4.20526 181.256 4.00994C181.753 3.81108 182.328 3.71165 182.982 3.71165C183.436 3.71165 183.871 3.76491 184.287 3.87145C184.706 3.97798 185.077 4.14311 185.4 4.36683C185.727 4.59055 185.984 4.8782 186.172 5.22976C186.361 5.57777 186.455 5.99503 186.455 6.48153V12H184.303V10.8654H184.239C184.107 11.1211 183.932 11.3466 183.711 11.5419C183.491 11.7337 183.227 11.8846 182.918 11.9947C182.609 12.1012 182.252 12.1545 181.847 12.1545ZM182.497 10.5884C182.831 10.5884 183.125 10.5227 183.381 10.3913C183.637 10.2564 183.837 10.0753 183.983 9.84801C184.129 9.62074 184.201 9.36328 184.201 9.07564V8.20739C184.13 8.25355 184.033 8.29616 183.908 8.33523C183.788 8.37074 183.651 8.40447 183.498 8.43643C183.346 8.46484 183.193 8.49148 183.04 8.51634C182.888 8.53764 182.749 8.55717 182.625 8.57493C182.358 8.61399 182.126 8.67614 181.927 8.76136C181.728 8.84659 181.574 8.962 181.464 9.1076C181.353 9.24964 181.298 9.4272 181.298 9.64027C181.298 9.94922 181.41 10.1854 181.634 10.3487C181.861 10.5085 182.149 10.5884 182.497 10.5884ZM188.215 12V3.81818H190.415V5.24574H190.5C190.649 4.73793 190.9 4.3544 191.251 4.09517C191.603 3.83239 192.008 3.70099 192.466 3.70099C192.579 3.70099 192.702 3.7081 192.833 3.7223C192.965 3.73651 193.08 3.75604 193.18 3.78089V5.79439C193.073 5.76243 192.926 5.73402 192.737 5.70916C192.549 5.6843 192.377 5.67188 192.221 5.67188C191.887 5.67188 191.589 5.74467 191.326 5.89027C191.067 6.03232 190.861 6.23118 190.708 6.48686C190.559 6.74254 190.484 7.03729 190.484 7.37109V12H188.215ZM196.409 9.6456L196.414 6.92365H196.744L199.365 3.81818H201.97L198.449 7.9304H197.911L196.409 9.6456ZM194.353 12V1.09091H196.622V12H194.353ZM199.466 12L197.059 8.43643L198.572 6.8331L202.124 12H199.466ZM206.475 12.1598C205.633 12.1598 204.909 11.9893 204.302 11.6484C203.698 11.304 203.233 10.8175 202.906 10.1889C202.579 9.55682 202.416 8.8093 202.416 7.94638C202.416 7.10476 202.579 6.36612 202.906 5.73047C203.233 5.09482 203.693 4.59943 204.286 4.24432C204.882 3.8892 205.582 3.71165 206.384 3.71165C206.924 3.71165 207.427 3.79865 207.892 3.97266C208.361 4.14311 208.769 4.40057 209.117 4.74503C209.469 5.08949 209.742 5.52273 209.937 6.04474C210.133 6.56321 210.23 7.17045 210.23 7.86648V8.4897H203.322V7.08345H208.094C208.094 6.75675 208.023 6.46733 207.881 6.2152C207.739 5.96307 207.542 5.76598 207.29 5.62393C207.041 5.47834 206.752 5.40554 206.422 5.40554C206.077 5.40554 205.772 5.48544 205.506 5.64524C205.243 5.80149 205.037 6.01278 204.888 6.27912C204.739 6.5419 204.662 6.83487 204.659 7.15803V8.49503C204.659 8.89986 204.733 9.24964 204.882 9.54439C205.035 9.83913 205.25 10.0664 205.527 10.2262C205.804 10.386 206.132 10.4659 206.512 10.4659C206.764 10.4659 206.995 10.4304 207.205 10.3594C207.414 10.2884 207.594 10.1818 207.743 10.0398C207.892 9.89773 208.006 9.72372 208.084 9.51776L210.182 9.65625C210.076 10.1605 209.858 10.6009 209.527 10.9773C209.201 11.3501 208.778 11.6413 208.259 11.8509C207.745 12.0568 207.15 12.1598 206.475 12.1598ZM216.063 3.81818V5.52273H211.136V3.81818H216.063ZM212.255 1.85795H214.524V9.4858C214.524 9.69531 214.556 9.85866 214.62 9.97585C214.684 10.0895 214.772 10.1694 214.886 10.2156C215.003 10.2617 215.138 10.2848 215.291 10.2848C215.397 10.2848 215.504 10.2759 215.61 10.2582C215.717 10.2369 215.799 10.2209 215.855 10.2102L216.212 11.8988C216.099 11.9343 215.939 11.9751 215.733 12.0213C215.527 12.071 215.277 12.1012 214.982 12.1119C214.435 12.1332 213.956 12.0604 213.544 11.8935C213.135 11.7266 212.817 11.4673 212.59 11.1158C212.363 10.7642 212.251 10.3203 212.255 9.78409V1.85795ZM217.541 12V3.81818H219.81V12H217.541ZM218.681 2.76349C218.344 2.76349 218.054 2.65163 217.813 2.42791C217.575 2.20064 217.456 1.92898 217.456 1.61293C217.456 1.30043 217.575 1.03232 217.813 0.808594C218.054 0.581321 218.344 0.467684 218.681 0.467684C219.019 0.467684 219.306 0.581321 219.544 0.808594C219.786 1.03232 219.906 1.30043 219.906 1.61293C219.906 1.92898 219.786 2.20064 219.544 2.42791C219.306 2.65163 219.019 2.76349 218.681 2.76349ZM223.897 7.26989V12H221.628V3.81818H223.791V5.26172H223.887C224.068 4.78587 224.371 4.40945 224.798 4.13246C225.224 3.85192 225.74 3.71165 226.348 3.71165C226.916 3.71165 227.411 3.83594 227.834 4.08452C228.256 4.3331 228.585 4.68821 228.819 5.14986C229.054 5.60795 229.171 6.15483 229.171 6.79048V12H226.902V7.19531C226.905 6.6946 226.777 6.30398 226.518 6.02344C226.259 5.73935 225.902 5.5973 225.447 5.5973C225.142 5.5973 224.872 5.663 224.638 5.79439C224.407 5.92578 224.226 6.11754 224.094 6.36967C223.967 6.61825 223.901 6.91832 223.897 7.26989ZM234.645 15.2386C233.91 15.2386 233.28 15.1374 232.754 14.935C232.232 14.7362 231.817 14.4645 231.508 14.12C231.199 13.7756 230.998 13.3885 230.906 12.9588L233.005 12.6765C233.069 12.8398 233.17 12.9925 233.308 13.1346C233.447 13.2766 233.63 13.3903 233.857 13.4755C234.088 13.5643 234.368 13.6087 234.699 13.6087C235.192 13.6087 235.599 13.4879 235.918 13.2464C236.242 13.0085 236.403 12.609 236.403 12.0479V10.5511H236.307C236.208 10.7784 236.059 10.9933 235.86 11.1957C235.661 11.3981 235.405 11.5632 235.093 11.6911C234.78 11.8189 234.407 11.8828 233.974 11.8828C233.36 11.8828 232.801 11.7408 232.296 11.4567C231.796 11.169 231.396 10.7305 231.098 10.141C230.803 9.54794 230.656 8.79865 230.656 7.89311C230.656 6.96626 230.807 6.19212 231.108 5.57067C231.41 4.94922 231.812 4.48402 232.312 4.17507C232.816 3.86612 233.369 3.71165 233.969 3.71165C234.427 3.71165 234.81 3.78977 235.119 3.94602C235.428 4.09872 235.677 4.29048 235.865 4.52131C236.057 4.74858 236.204 4.9723 236.307 5.19247H236.392V3.81818H238.646V12.0799C238.646 12.7759 238.475 13.3583 238.134 13.8271C237.793 14.2958 237.321 14.6474 236.717 14.8817C236.117 15.1197 235.427 15.2386 234.645 15.2386ZM234.693 10.1783C235.059 10.1783 235.368 10.0877 235.62 9.90661C235.876 9.72195 236.071 9.45916 236.206 9.11825C236.345 8.77379 236.414 8.36186 236.414 7.88246C236.414 7.40305 236.346 6.98757 236.211 6.63601C236.076 6.28089 235.881 6.00568 235.625 5.81037C235.37 5.61506 235.059 5.5174 234.693 5.5174C234.32 5.5174 234.006 5.61861 233.75 5.82102C233.495 6.01989 233.301 6.29687 233.17 6.65199C233.038 7.0071 232.973 7.41726 232.973 7.88246C232.973 8.35476 233.038 8.76314 233.17 9.1076C233.305 9.44851 233.498 9.71307 233.75 9.90128C234.006 10.0859 234.32 10.1783 234.693 10.1783Z" fill="black"/>
</svg>
